<svg width="28" height="28" viewBox="0 0 28 28" fill="none" xmlns="http://www.w3.org/2000/svg">
<path d="M14 4C9.58878 4 6 7.58878 6 12C6 14.481 7.28372 17.3625 9.81552 20.5645C11.6681 22.9075 13.494 24.5267 13.5708 24.5945C13.816 24.8108 14.1839 24.8109 14.4292 24.5945C14.506 24.5267 16.3319 22.9075 18.1845 20.5645C20.7163 17.3625 22 14.481 22 12C22 7.58878 18.4112 4 14 4V4ZM14 23.2232C12.4584 21.7541 7.2973 16.4985 7.2973 12C7.2973 8.30412 10.3041 5.2973 14 5.2973C17.6959 5.2973 20.7027 8.30412 20.7027 12C20.7027 16.4985 15.5415 21.7542 14 23.2232Z" fill="black"/>
<path d="M18.9623 11.6154L14.4217 7.72355C14.1788 7.51533 13.8204 7.51533 13.5775 7.72355L9.03694 11.6154C8.76495 11.8486 8.73345 12.2581 8.9666 12.5301C9.19975 12.8021 9.60925 12.8336 9.88124 12.6004L10.432 12.1283V15.3512C10.432 15.7094 10.7225 15.9998 11.0807 15.9998H16.9185C17.2767 15.9998 17.5672 15.7094 17.5672 15.3512V12.1283L18.118 12.6004C18.3912 12.8346 18.8005 12.8009 19.0326 12.5301C19.2658 12.2581 19.2343 11.8486 18.9623 11.6154ZM16.2699 14.7025H11.7293V11.0163L13.9996 9.07034L16.2699 11.0163V14.7025Z" fill="black"/>
</svg>
