<svg width="28" height="28" viewBox="0 0 28 28" fill="none" xmlns="http://www.w3.org/2000/svg">
<g clip-path="url(#clip0_12388_26680)">
<path d="M10.7316 16.3304C11.3174 16.9162 11.3174 17.866 10.7316 18.4518C10.1458 19.0376 9.19602 19.0376 8.61024 18.4518C8.02445 17.866 8.02445 16.9162 8.61024 16.3304C9.19606 15.7447 10.1458 15.7447 10.7316 16.3304Z" fill="#10223E"/>
<path d="M19.9943 16.2821C20.58 16.8679 20.58 17.8177 19.9943 18.4034C19.4085 18.9892 18.4587 18.9892 17.8729 18.4034C17.2871 17.8177 17.2871 16.8679 17.8729 16.2821C18.4587 15.6963 19.4085 15.6963 19.9943 16.2821Z" fill="#10223E"/>
<path d="M17.75 2H10.25C7.35543 2 5 4.35547 5 7.25001V19.25C5 20.4907 6.00927 21.5 7.25 21.5H8.55251L7.53051 25.6411L8.98658 26L9.3568 24.5H18.6432L19.0134 26L20.4695 25.6411L19.4475 21.5H20.75C21.9907 21.5 23 20.4907 23 19.25V7.25001C23 4.35547 20.6445 2 17.75 2V2ZM6.49998 7.25001C6.49998 5.18238 8.18233 3.50003 10.25 3.50003H17.75C19.8176 3.50003 21.5 5.18238 21.5 7.25001V10.9735C21.2769 11.5092 18.5203 12.5 13.9999 12.5C9.46697 12.5 6.70501 11.5032 6.49994 11V7.25001H6.49998ZM18.273 23H9.72693L10.0972 21.5H17.9028L18.273 23ZM20.75 20H7.25C6.83617 20 6.49998 19.6638 6.49998 19.25V12.7832C8.41006 13.7077 11.7343 14 14 14C16.2657 14 19.5899 13.7077 21.5 12.7832V19.25C21.5 19.6638 21.1638 20 20.75 20Z" fill="#10223E"/>
</g>
<defs>
<clipPath id="clip0_12388_26680">
<rect width="24" height="24" fill="white" transform="translate(2 2)"/>
</clipPath>
</defs>
</svg>
