<svg width="26" height="26" viewBox="0 0 26 26" fill="none" xmlns="http://www.w3.org/2000/svg">
<path d="M15.0896 13.8122C15.0896 14.2942 14.9499 14.7655 14.6881 15.1664C14.4263 15.5672 14.0542 15.8796 13.6188 16.0641C13.1835 16.2486 12.7044 16.2969 12.2422 16.2028C11.7801 16.1088 11.3555 15.8766 11.0223 15.5357C10.6891 15.1948 10.4622 14.7605 10.3703 14.2877C10.2783 13.8149 10.3255 13.3248 10.5058 12.8794C10.6862 12.434 10.9915 12.0533 11.3834 11.7854C11.7752 11.5176 12.2358 11.3747 12.707 11.3747C13.3389 11.3747 13.945 11.6315 14.3918 12.0886C14.8386 12.5457 15.0896 13.1657 15.0896 13.8122ZM23.8257 8.93715V19.4997C23.8257 20.1461 23.5747 20.7661 23.1279 21.2232C22.681 21.6803 22.075 21.9372 21.4431 21.9372H3.97095C3.33905 21.9372 2.73304 21.6803 2.28622 21.2232C1.8394 20.7661 1.58838 20.1461 1.58838 19.4997V8.93715C1.58838 8.29069 1.8394 7.6707 2.28622 7.21358C2.73304 6.75646 3.33905 6.49965 3.97095 6.49965H8.16427L8.41841 5.68715C8.58317 5.2104 8.88878 4.79787 9.2929 4.50672C9.69702 4.21557 10.1796 4.0602 10.6739 4.06215H14.7402C15.2393 4.06311 15.7255 4.22439 16.1302 4.52325C16.5349 4.82211 16.8376 5.24344 16.9957 5.72778L17.2498 6.54028H21.4431C22.0682 6.54019 22.6683 6.79141 23.114 7.23978C23.5597 7.68815 23.8153 8.29775 23.8257 8.93715ZM16.678 13.8122C16.678 13.0087 16.4451 12.2232 16.0088 11.5551C15.5724 10.8871 14.9523 10.3664 14.2267 10.0589C13.5011 9.75141 12.7026 9.67096 11.9323 9.82771C11.1621 9.98446 10.4545 10.3714 9.89915 10.9395C9.34381 11.5077 8.96561 12.2316 8.81239 13.0196C8.65917 13.8076 8.73781 14.6245 9.03836 15.3668C9.33891 16.1091 9.84788 16.7436 10.5009 17.19C11.1539 17.6364 11.9217 17.8747 12.707 17.8747C13.7602 17.8747 14.7702 17.4466 15.5149 16.6848C16.2596 15.9229 16.678 14.8896 16.678 13.8122Z" fill="#022D47"/>
</svg>
