<svg width="26" height="26" viewBox="0 0 26 26" fill="none" xmlns="http://www.w3.org/2000/svg">
<path d="M21.028 14.7939C20.6116 14.7939 20.2569 14.4754 20.2196 14.0529C20.1797 13.606 20.5104 13.2115 20.9573 13.1721H20.9581C21.0126 12.7269 21.4147 12.4129 21.8637 12.4649C22.3093 12.5197 22.6258 12.9251 22.5709 13.3704C22.4779 14.1264 21.8592 14.7236 21.1003 14.7906C21.0759 14.7931 21.0516 14.7939 21.028 14.7939Z" fill="#022F47"/>
<path d="M7.83115 15.9486C7.41434 15.9486 7.05968 15.6297 7.02271 15.2068C6.98331 14.7596 7.3144 14.3659 7.76128 14.3265L20.9575 13.1719C21.4068 13.1305 21.7984 13.4636 21.8374 13.9105C21.8768 14.3578 21.5457 14.7514 21.0989 14.7908L7.90265 15.9454C7.87909 15.9474 7.85471 15.9486 7.83115 15.9486Z" fill="#022F47"/>
<path d="M21.765 14.0839C21.7317 14.0839 21.6983 14.0818 21.6646 14.0778C21.219 14.0229 20.9025 13.6175 20.9573 13.1722L21.9433 5.16789C21.9986 4.72264 22.4069 4.40617 22.8489 4.46101C23.2945 4.51585 23.611 4.92129 23.5561 5.36654L22.5702 13.3709C22.5198 13.7824 22.1692 14.0839 21.765 14.0839Z" fill="#022F47"/>
<path d="M5.66733 7.57403C5.25052 7.57403 4.89586 7.25512 4.8589 6.83222C4.81949 6.38494 5.15058 5.99128 5.59746 5.95187L22.6795 4.45728C23.128 4.41625 23.5204 4.74897 23.5594 5.19584C23.5988 5.64312 23.2677 6.03678 22.8208 6.07619L5.73883 7.57078C5.71486 7.57281 5.6909 7.57403 5.66733 7.57403Z" fill="#022F47"/>
<path d="M5.45534 5.98642C5.05477 5.98642 4.70581 5.68986 4.65137 5.28157V5.28076C4.20287 5.28076 3.83887 4.91717 3.83887 4.46826C3.83887 4.01936 4.20287 3.65576 4.65137 3.65576C5.46224 3.65576 6.15449 4.26189 6.26215 5.06586C6.32146 5.5107 6.00906 5.91939 5.56421 5.97911C5.52724 5.98398 5.49149 5.98642 5.45534 5.98642Z" fill="#022F47"/>
<path d="M4.65116 5.28125H3.25C2.8015 5.28125 2.4375 4.91725 2.4375 4.46875C2.4375 4.02025 2.8015 3.65625 3.25 3.65625H4.65116C5.09966 3.65625 5.46366 4.02025 5.46366 4.46875C5.46366 4.91725 5.10006 5.28125 4.65116 5.28125Z" fill="#022F47"/>
<path d="M6.5907 14.4996C6.19014 14.4996 5.84077 14.203 5.78673 13.7943L4.65127 5.28132C4.59196 4.83648 4.90436 4.42779 5.3492 4.36848C5.7912 4.30835 6.20314 4.62157 6.26205 5.06642L7.39711 13.5798C7.45642 14.0247 7.14401 14.4333 6.69917 14.4927C6.66261 14.4975 6.62686 14.4996 6.5907 14.4996Z" fill="#022F47"/>
<path d="M10.2446 22.3438C8.70332 22.3438 7.40088 21.0413 7.40088 19.5C7.40088 17.9587 8.70332 16.6562 10.2446 16.6562C11.7859 16.6562 13.0884 17.9587 13.0884 19.5C13.0884 21.0413 11.7859 22.3438 10.2446 22.3438ZM10.2446 18.2812C9.59544 18.2812 9.02588 18.8508 9.02588 19.5C9.02588 20.1492 9.59544 20.7188 10.2446 20.7188C10.8938 20.7188 11.4634 20.1492 11.4634 19.5C11.4634 18.8508 10.8934 18.2812 10.2446 18.2812Z" fill="#022F47"/>
<path d="M17.9634 22.3438C16.4221 22.3438 15.1196 21.0413 15.1196 19.5C15.1196 17.9587 16.4221 16.6562 17.9634 16.6562C19.5047 16.6562 20.8071 17.9587 20.8071 19.5C20.8071 21.0413 19.5047 22.3438 17.9634 22.3438ZM17.9634 18.2812C17.3142 18.2812 16.7446 18.8508 16.7446 19.5C16.7446 20.1492 17.3142 20.7188 17.9634 20.7188C18.6126 20.7188 19.1821 20.1492 19.1821 19.5C19.1821 18.8508 18.6122 18.2812 17.9634 18.2812Z" fill="#022F47"/>
<path d="M8.19859 15.9099C6.98755 15.9099 5.94918 15.017 5.78627 13.7942C5.72696 13.3493 6.03977 12.9406 6.48462 12.8817C6.92621 12.8212 7.33815 13.1352 7.39705 13.5801C7.45474 14.0119 7.84637 14.3162 8.27293 14.2821C8.72996 14.2431 9.11428 14.5742 9.15328 15.0206C9.19268 15.4675 8.86159 15.8616 8.41512 15.901C8.3424 15.9067 8.26968 15.9099 8.19859 15.9099Z" fill="#022F47"/>
</svg>
