<svg width="27" height="26" viewBox="0 0 27 26" fill="none" xmlns="http://www.w3.org/2000/svg">
<path d="M21.8899 14.7939C21.4735 14.7939 21.1189 14.4754 21.0815 14.0529C21.0417 13.606 21.3724 13.2115 21.8192 13.1721H21.8201C21.8745 12.7269 22.2767 12.4129 22.7256 12.4649C23.1713 12.5197 23.4877 12.9251 23.4329 13.3704C23.3398 14.1264 22.7211 14.7236 21.9622 14.7906C21.9379 14.7931 21.9135 14.7939 21.8899 14.7939Z" fill="white"/>
<path d="M8.69321 15.9486C8.2764 15.9486 7.92174 15.6297 7.88477 15.2068C7.84537 14.7596 8.17646 14.3659 8.62334 14.3265L21.8196 13.1719C22.2689 13.1305 22.6605 13.4636 22.6995 13.9105C22.7389 14.3578 22.4078 14.7514 21.9609 14.7908L8.76471 15.9454C8.74115 15.9474 8.71677 15.9486 8.69321 15.9486Z" fill="white"/>
<path d="M22.6272 14.0839C22.5938 14.0839 22.5605 14.0818 22.5268 14.0778C22.0812 14.0229 21.7647 13.6175 21.8195 13.1722L22.8055 5.16789C22.8608 4.72264 23.269 4.40617 23.711 4.46101C24.1567 4.51585 24.4732 4.92129 24.4183 5.36654L23.4323 13.3709C23.382 13.7824 23.0314 14.0839 22.6272 14.0839Z" fill="white"/>
<path d="M6.52939 7.57403C6.11258 7.57403 5.75793 7.25512 5.72096 6.83222C5.68155 6.38494 6.01264 5.99128 6.45952 5.95187L23.5415 4.45728C23.99 4.41625 24.3825 4.74897 24.4215 5.19584C24.4609 5.64312 24.1298 6.03678 23.6829 6.07619L6.60089 7.57078C6.57693 7.57281 6.55296 7.57403 6.52939 7.57403Z" fill="white"/>
<path d="M6.31752 5.98642C5.91696 5.98642 5.56799 5.68986 5.51355 5.28157V5.28076C5.06505 5.28076 4.70105 4.91717 4.70105 4.46826C4.70105 4.01936 5.06505 3.65576 5.51355 3.65576C6.32443 3.65576 7.01668 4.26189 7.12433 5.06586C7.18365 5.5107 6.87124 5.91939 6.42639 5.97911C6.38943 5.98398 6.35368 5.98642 6.31752 5.98642Z" fill="white"/>
<path d="M5.51322 5.28125H4.11206C3.66356 5.28125 3.29956 4.91725 3.29956 4.46875C3.29956 4.02025 3.66356 3.65625 4.11206 3.65625H5.51322C5.96172 3.65625 6.32572 4.02025 6.32572 4.46875C6.32572 4.91725 5.96212 5.28125 5.51322 5.28125Z" fill="white"/>
<path d="M7.45264 14.4996C7.05208 14.4996 6.7027 14.203 6.64867 13.7943L5.51321 5.28132C5.45389 4.83648 5.7663 4.42779 6.21114 4.36848C6.65314 4.30835 7.06508 4.62157 7.12398 5.06642L8.25904 13.5798C8.31836 14.0247 8.00595 14.4333 7.56111 14.4927C7.52455 14.4975 7.4888 14.4996 7.45264 14.4996Z" fill="white"/>
<path d="M11.1067 22.3438C9.56538 22.3438 8.26294 21.0413 8.26294 19.5C8.26294 17.9587 9.56538 16.6562 11.1067 16.6562C12.648 16.6562 13.9504 17.9587 13.9504 19.5C13.9504 21.0413 12.648 22.3438 11.1067 22.3438ZM11.1067 18.2812C10.4575 18.2812 9.88794 18.8508 9.88794 19.5C9.88794 20.1492 10.4575 20.7188 11.1067 20.7188C11.7559 20.7188 12.3254 20.1492 12.3254 19.5C12.3254 18.8508 11.7555 18.2812 11.1067 18.2812Z" fill="white"/>
<path d="M18.8254 22.3438C17.2841 22.3438 15.9817 21.0413 15.9817 19.5C15.9817 17.9587 17.2841 16.6562 18.8254 16.6562C20.3668 16.6562 21.6692 17.9587 21.6692 19.5C21.6692 21.0413 20.3668 22.3438 18.8254 22.3438ZM18.8254 18.2812C18.1763 18.2812 17.6067 18.8508 17.6067 19.5C17.6067 20.1492 18.1763 20.7188 18.8254 20.7188C19.4746 20.7188 20.0442 20.1492 20.0442 19.5C20.0442 18.8508 19.4742 18.2812 18.8254 18.2812Z" fill="white"/>
<path d="M9.06077 15.9099C7.84974 15.9099 6.81136 15.017 6.64845 13.7942C6.58914 13.3493 6.90195 12.9406 7.3468 12.8817C7.78839 12.8212 8.20033 13.1352 8.25924 13.5801C8.31693 14.0119 8.70855 14.3162 9.13511 14.2821C9.59215 14.2431 9.97646 14.5742 10.0155 15.0206C10.0549 15.4675 9.72377 15.8616 9.2773 15.901C9.20458 15.9067 9.13186 15.9099 9.06077 15.9099Z" fill="white"/>
</svg>
