<svg width="35" height="35" viewBox="0 0 35 35" fill="none" xmlns="http://www.w3.org/2000/svg">
<path d="M23.9998 14.8233C24.0037 14.6628 23.9523 14.5052 23.8526 14.3724C23.753 14.2396 23.61 14.1382 23.4437 14.0823C23.2774 14.0264 23.096 14.0187 22.9247 14.0604C22.7534 14.1021 22.6008 14.1911 22.4879 14.315L18.0138 19.041L13.5413 14.315C13.4717 14.2293 13.3833 14.1575 13.2817 14.1042C13.18 14.0509 13.0673 14.0171 12.9505 14.005C12.8338 13.9929 12.7155 14.0028 12.6032 14.034C12.4909 14.0651 12.3868 14.117 12.2976 14.1862C12.2085 14.2555 12.1361 14.3406 12.085 14.4364C12.0339 14.5321 12.0052 14.6364 12.0006 14.7426C11.9961 14.8489 12.0158 14.9548 12.0586 15.0539C12.1014 15.1529 12.1664 15.2429 12.2494 15.3181L17.3654 20.729C17.4455 20.814 17.545 20.8822 17.657 20.929C17.7691 20.9758 17.8911 21 18.0146 21C18.138 21 18.26 20.9758 18.3721 20.929C18.4842 20.8822 18.5838 20.814 18.6639 20.729L23.7848 15.3181C23.919 15.1814 23.995 15.0061 23.9998 14.8233Z" fill="black"/>
</svg>
