<svg width="21" height="21" viewBox="0 0 21 21" fill="none" xmlns="http://www.w3.org/2000/svg">
<path d="M13.9414 17.9997C14.1478 18.0046 14.3504 17.9404 14.5212 17.8158C14.6919 17.6912 14.8223 17.5125 14.8942 17.3046C14.9661 17.0967 14.9759 16.87 14.9223 16.6559C14.8687 16.4417 14.7543 16.251 14.595 16.1099L8.5187 10.5173L14.595 4.92658C14.7052 4.83959 14.7975 4.72915 14.866 4.60209C14.9346 4.47502 14.978 4.33407 14.9936 4.18813C15.0091 4.0422 14.9964 3.89443 14.9563 3.754C14.9162 3.61358 14.8496 3.48352 14.7606 3.37205C14.6715 3.26058 14.5621 3.17015 14.439 3.10625C14.3159 3.04235 14.1818 3.00646 14.0452 3.00079C13.9086 2.99513 13.7723 3.01975 13.645 3.07327C13.5177 3.12679 13.402 3.20798 13.3053 3.31175L6.34844 9.7067C6.23919 9.80686 6.15146 9.93119 6.09131 10.0713C6.03115 10.2114 6 10.3639 6 10.5182C6 10.6725 6.03115 10.825 6.09131 10.9652C6.15146 11.1053 6.23919 11.2297 6.34844 11.3299L13.3053 17.731C13.481 17.8987 13.7064 17.994 13.9414 18V17.9997Z" fill="#7C7C7C"/>
</svg>
