<svg width="20" height="16" viewBox="0 0 20 16" fill="none" xmlns="http://www.w3.org/2000/svg">
<path d="M16.4086 6.02764C16.1486 2.65964 13.3736 0 10 0C7.11429 0 4.63714 1.90836 3.83786 4.69164C1.55786 5.49746 0 7.69673 0 10.1818C0 13.3898 2.56357 16 5.71429 16H15C17.7571 16 20 13.7164 20 10.9091C20 8.61891 18.5214 6.65309 16.4086 6.02764ZM13.5171 8.27855C13.4064 8.54982 13.1457 8.72727 12.8571 8.72727H11.4286V11.6364C11.4286 12.4393 10.7886 13.0909 10 13.0909C9.21143 13.0909 8.57143 12.4393 8.57143 11.6364V8.72727H7.14286C6.85429 8.72727 6.59357 8.54982 6.48286 8.27855C6.37214 8.00655 6.43357 7.69382 6.63786 7.48582L9.495 4.57673C9.63429 4.43491 9.81714 4.36364 10 4.36364C10.1829 4.36364 10.3657 4.43491 10.505 4.57673L13.3621 7.48582C13.5664 7.69382 13.6279 8.00655 13.5171 8.27855Z" fill="#10223E"/>
</svg>
