<svg width="56" height="56" viewBox="0 0 56 56" fill="none" xmlns="http://www.w3.org/2000/svg">
<g clip-path="url(#clip0_12388_26064)">
<path d="M47.799 8.20105C42.5105 2.91255 35.479 0 27.9999 0C20.5208 0 13.4895 2.91255 8.20086 8.20105C2.91245 13.4895 0 20.5209 0 28C0 35.4791 2.91245 42.5105 8.20097 47.799C13.4895 53.0875 20.5209 56 27.9999 56C35.4789 56 42.5104 53.0875 47.799 47.799C53.0876 42.5105 56 35.4791 56 28C56 20.5209 53.0876 13.4895 47.799 8.20105ZM10.5438 22.7282C10.5438 18.9165 13.6447 15.8156 17.4562 15.8156C21.2677 15.8156 24.3686 18.9166 24.3686 22.7282C24.3686 23.6343 23.6341 24.3689 22.728 24.3689C21.8219 24.3689 21.0874 23.6343 21.0874 22.7282C21.0874 20.7258 19.4584 19.0969 17.4562 19.0969C15.454 19.0969 13.8251 20.7259 13.8251 22.7282C13.8251 23.6343 13.0905 24.3689 12.1844 24.3689C11.2784 24.3689 10.5438 23.6343 10.5438 22.7282ZM44.461 33.8185C42.0006 40.7794 35.3856 45.4562 27.9999 45.4562C20.6142 45.4562 13.999 40.7794 11.5388 33.8185C11.2368 32.9642 11.6846 32.027 12.5389 31.725C13.3932 31.4232 14.3306 31.8709 14.6326 32.7252C16.6303 38.3775 22.0023 42.175 28 42.175C33.9977 42.175 39.3696 38.3774 41.3674 32.7251C41.6694 31.8708 42.6068 31.4237 43.4611 31.725C44.3153 32.0269 44.763 32.9642 44.461 33.8185ZM43.8155 24.3689C42.9094 24.3689 42.1748 23.6343 42.1748 22.7282C42.1748 20.7258 40.5459 19.0969 38.5437 19.0969C36.5415 19.0969 34.9125 20.7259 34.9125 22.7282C34.9125 23.6343 34.178 24.3689 33.2719 24.3689C32.3658 24.3689 31.6313 23.6343 31.6313 22.7282C31.6313 18.9165 34.7322 15.8156 38.5437 15.8156C42.3553 15.8156 45.4561 18.9166 45.4561 22.7282C45.4561 23.6343 44.7215 24.3689 43.8155 24.3689Z" fill="#F44336"/>
</g>
<defs>
<clipPath id="clip0_12388_26064">
<rect width="56" height="56" fill="white"/>
</clipPath>
</defs>
</svg>
