<svg width="28" height="28" viewBox="0 0 28 28" fill="none" xmlns="http://www.w3.org/2000/svg">
<path d="M7.79479 16.0002H6.97428C6.53905 16.0002 6.12165 15.8273 5.8139 15.5195C5.50615 15.2118 5.33325 14.7944 5.33325 14.3591V6.97452C5.33325 6.53929 5.50615 6.12189 5.8139 5.81414C6.12165 5.50639 6.53905 5.3335 6.97428 5.3335H14.3589C14.7941 5.3335 15.2115 5.50639 15.5193 5.81414C15.827 6.12189 15.9999 6.53929 15.9999 6.97452V7.79503" stroke="#10223E" stroke-width="2" stroke-linecap="round" stroke-linejoin="round"/>
<path d="M21.0256 12H13.641C12.7347 12 12 12.7347 12 13.641V21.0256C12 21.932 12.7347 22.6667 13.641 22.6667H21.0256C21.932 22.6667 22.6667 21.932 22.6667 21.0256V13.641C22.6667 12.7347 21.932 12 21.0256 12Z" stroke="#10223E" stroke-width="2" stroke-linecap="round" stroke-linejoin="round"/>
</svg>
