<svg width="26" height="16" viewBox="0 0 26 16" fill="none" xmlns="http://www.w3.org/2000/svg">
<path d="M23.5126 6.75395L22.8796 4.23098C23.0526 4.19435 23.1825 4.04136 23.1825 3.85806V3.45128C23.1825 2.56806 22.4613 1.84953 21.575 1.84953H18.6917V1.01046C18.6917 0.575844 18.3368 0.22229 17.9007 0.22229H3.20331C2.76713 0.22229 2.4123 0.575844 2.4123 1.01046V7.92598C2.4123 8.13658 2.58365 8.30736 2.79506 8.30736C3.00642 8.30736 3.17782 8.13663 3.17782 7.92598V1.01046C3.17782 0.996426 3.18923 0.985057 3.20331 0.985057H17.9006C17.9147 0.985057 17.9261 0.996426 17.9261 1.01046V7.92607C17.9261 8.13667 18.0975 8.30746 18.3089 8.30746C18.5202 8.30746 18.6916 8.13672 18.6916 7.92607V7.49374H23.2066C23.207 7.49374 23.2073 7.49383 23.2076 7.49383C23.208 7.49383 23.2084 7.49379 23.2087 7.49379C23.7643 7.49417 24.236 7.85752 24.3981 8.35822H23.2079C22.9966 8.35822 22.8252 8.52895 22.8252 8.7396V9.55317C22.8252 10.2121 23.3631 10.7481 24.0244 10.7481H24.4582V12.4261H23.4574C23.1287 11.4803 22.2263 10.7989 21.1666 10.7989C20.107 10.7989 19.2045 11.4803 18.8758 12.4261H18.6915V9.55312C18.6915 9.34252 18.5202 9.17174 18.3088 9.17174C18.0974 9.17174 17.926 9.34248 17.926 9.55312V12.426H9.98499C9.65623 11.4802 8.75384 10.7988 7.69418 10.7988C6.63452 10.7988 5.73208 11.4802 5.40336 12.426H3.20331C3.18923 12.426 3.17782 12.4147 3.17782 12.4006V11.5616H4.83637C5.04773 11.5616 5.21912 11.3909 5.21912 11.1802C5.21912 10.9696 5.04777 10.7988 4.83637 10.7988H1.16205C0.950695 10.7988 0.779297 10.9696 0.779297 11.1802C0.779297 11.3909 0.950647 11.5616 1.16205 11.5616H2.41235V12.4006C2.41235 12.8352 2.76718 13.1888 3.20336 13.1888H5.27083C5.27073 13.1973 5.27016 13.2057 5.27016 13.2142C5.27016 14.546 6.35761 15.6295 7.69418 15.6295C9.03075 15.6295 10.1182 14.546 10.1182 13.2142C10.1182 13.2056 10.1176 13.1973 10.1175 13.1888H18.7433C18.7432 13.1973 18.7426 13.2057 18.7426 13.2142C18.7426 14.546 19.8301 15.6295 21.1666 15.6295C22.5032 15.6295 23.5906 14.546 23.5906 13.2142C23.5906 13.2056 23.5901 13.1973 23.59 13.1888H24.841C25.0523 13.1888 25.2237 13.0181 25.2237 12.8074V8.7395C25.2238 7.73517 24.4801 6.90071 23.5126 6.75395ZM18.6917 2.61225H21.575C22.0393 2.61225 22.417 2.98864 22.417 3.45128V3.47668H18.6917V2.61225ZM18.6917 6.73102V4.2394H22.0926L22.7178 6.73102H18.6917ZM7.69418 14.8669C6.77966 14.8669 6.03563 14.1256 6.03563 13.2143C6.03563 12.303 6.77966 11.5617 7.69418 11.5617C8.6087 11.5617 9.35273 12.303 9.35273 13.2143C9.35273 14.1256 8.6087 14.8669 7.69418 14.8669ZM21.1667 14.8669C20.2522 14.8669 19.5082 14.1256 19.5082 13.2143C19.5082 12.303 20.2522 11.5617 21.1667 11.5617C22.0812 11.5617 22.8253 12.303 22.8253 13.2143C22.8253 14.1256 22.0812 14.8669 21.1667 14.8669ZM24.4583 9.98536H24.0245C23.7853 9.98536 23.5907 9.79146 23.5907 9.55312V9.12089H24.4583V9.98536H24.4583Z" fill="#7C7C7C"/>
<path d="M7.6914 12.4261C7.25522 12.4261 6.90039 12.7797 6.90039 13.2143C6.90039 13.6489 7.25522 14.0025 7.6914 14.0025C8.12758 14.0025 8.48241 13.6489 8.48241 13.2143C8.48241 12.7797 8.12758 12.4261 7.6914 12.4261Z" fill="#7C7C7C"/>
<path d="M21.166 12.4261C20.7298 12.4261 20.375 12.7797 20.375 13.2143C20.375 13.6489 20.7298 14.0025 21.166 14.0025C21.6022 14.0025 21.957 13.6489 21.957 13.2143C21.957 12.7797 21.6022 12.4261 21.166 12.4261Z" fill="#7C7C7C"/>
<path d="M16.6745 10.799H10.9589C10.7476 10.799 10.5762 10.9697 10.5762 11.1803C10.5762 11.391 10.7475 11.5617 10.9589 11.5617H16.6745C16.8859 11.5617 17.0573 11.391 17.0573 11.1803C17.0573 10.9697 16.886 10.799 16.6745 10.799Z" fill="#7C7C7C"/>
<path d="M6.87562 9.17188H1.97651C1.76515 9.17188 1.59375 9.34261 1.59375 9.55326C1.59375 9.76391 1.7651 9.93464 1.97651 9.93464H6.87562C7.08698 9.93464 7.25838 9.76391 7.25838 9.55326C7.25838 9.34261 7.08698 9.17188 6.87562 9.17188Z" fill="#7C7C7C"/>
<path d="M14.0877 3.99509C13.9383 3.84619 13.6959 3.84619 13.5465 3.99514L10.1428 7.38658L8.37213 5.62229C8.22264 5.47334 7.9803 5.47334 7.83086 5.62229C7.68138 5.77123 7.68138 6.01266 7.83086 6.16161L9.87217 8.19559C9.94689 8.27008 10.0449 8.30728 10.1428 8.30728C10.2407 8.30728 10.3387 8.27008 10.4134 8.19559L14.0877 4.53446C14.2372 4.38547 14.2372 4.14404 14.0877 3.99509Z" fill="#7C7C7C"/>
</svg>
