<svg width="22" height="16" viewBox="0 0 22 16" fill="none" xmlns="http://www.w3.org/2000/svg">
<path d="M16.6157 9.70605C15.0865 9.70605 13.8425 10.9501 13.8425 12.4792C13.8425 14.0083 15.0865 15.2523 16.6157 15.2523C18.1451 15.2523 19.3888 14.0083 19.3888 12.4792C19.3888 10.9501 18.1448 9.70605 16.6157 9.70605ZM16.6157 13.8658C15.851 13.8658 15.2291 13.2439 15.2291 12.4792C15.2291 11.7145 15.851 11.0926 16.6157 11.0926C17.3803 11.0926 18.0022 11.7145 18.0022 12.4792C18.0022 13.2439 17.3803 13.8658 16.6157 13.8658Z" fill="#10223E"/>
<path d="M7.14093 9.70605C5.61179 9.70605 4.3678 10.9501 4.3678 12.4792C4.3678 14.0083 5.61179 15.2523 7.14093 15.2523C8.67007 15.2523 9.91407 14.0083 9.91407 12.4792C9.91407 10.9501 8.67007 9.70605 7.14093 9.70605ZM7.14093 13.8658C6.37626 13.8658 5.75437 13.2439 5.75437 12.4792C5.75437 11.7145 6.37626 11.0926 7.14093 11.0926C7.9054 11.0926 8.5275 11.7145 8.5275 12.4792C8.5275 13.2439 7.90561 13.8658 7.14093 13.8658Z" fill="#10223E"/>
<path d="M18.4818 1.7685C18.3639 1.5344 18.1243 1.38672 17.8622 1.38672H14.2109V2.77329H17.4347L19.3225 6.5281L20.5616 5.90504L18.4818 1.7685Z" fill="#10223E"/>
<path d="M14.5358 11.8091H9.28992V13.1957H14.5358V11.8091Z" fill="#10223E"/>
<path d="M5.05852 11.8093H2.65518C2.27224 11.8093 1.96191 12.1197 1.96191 12.5026C1.96191 12.8855 2.27228 13.1959 2.65518 13.1959H5.05857C5.44151 13.1959 5.75183 12.8855 5.75183 12.5026C5.75183 12.1196 5.44146 11.8093 5.05852 11.8093Z" fill="#10223E"/>
<path d="M21.8522 7.57088L20.4885 5.81456C20.3575 5.64539 20.1553 5.54647 19.941 5.54647H14.9032V0.693507C14.9032 0.310566 14.5928 0.000244141 14.2099 0.000244141H2.65518C2.27224 0.000244141 1.96191 0.310609 1.96191 0.693507C1.96191 1.0764 2.27228 1.38677 2.65518 1.38677H13.5166V6.23974C13.5166 6.62268 13.827 6.933 14.2099 6.933H19.6015L20.6112 8.23359V11.8091H18.6931C18.3101 11.8091 17.9998 12.1195 17.9998 12.5023C17.9998 12.8853 18.3102 13.1956 18.6931 13.1956H21.3044C21.6874 13.1956 21.9977 12.8852 21.9977 12.5023V7.9961C21.9977 7.84218 21.9464 7.69244 21.8522 7.57088Z" fill="#10223E"/>
<path d="M5.01227 8.29663H1.82315C1.44021 8.29663 1.12988 8.607 1.12988 8.98989C1.12988 9.37283 1.44025 9.68316 1.82315 9.68316H5.01222C5.39516 9.68316 5.70549 9.37279 5.70549 8.98989C5.70553 8.607 5.39516 8.29663 5.01227 8.29663Z" fill="#10223E"/>
<path d="M6.60929 5.56934H0.693263C0.310366 5.56934 0 5.8797 0 6.26264C0 6.64558 0.310366 6.9559 0.693263 6.9559H6.60929C6.99223 6.9559 7.30255 6.64554 7.30255 6.26264C7.30255 5.87974 6.99223 5.56934 6.60929 5.56934Z" fill="#10223E"/>
<path d="M7.73917 2.84253H1.82315C1.44021 2.84253 1.12988 3.15289 1.12988 3.53579C1.12988 3.91873 1.44025 4.22906 1.82315 4.22906H7.73917C8.12211 4.22906 8.43243 3.91869 8.43243 3.53579C8.43248 3.15289 8.12211 2.84253 7.73917 2.84253Z" fill="#10223E"/>
</svg>
