<svg width="26" height="26" viewBox="0 0 26 26" fill="none" xmlns="http://www.w3.org/2000/svg">
<path d="M15.9155 4.08777H2.11924C1.71255 4.08777 1.39313 4.41455 1.39313 4.83063V13.7449C1.39313 14.1534 1.71255 14.4878 2.11924 14.4878H15.9155C16.3148 14.4878 16.6416 14.1534 16.6416 13.7449V4.83063C16.6416 4.41455 16.3149 4.08777 15.9155 4.08777Z" fill="#022D47"/>
<path d="M1.38702 18.2017C1.38702 18.6102 1.71378 18.9446 2.11314 18.9446H2.89735C3.20232 17.3919 4.45124 16.1737 6.00513 15.9731H2.1204C1.85893 15.9731 1.61945 15.9285 1.38702 15.8394V18.2017Z" fill="#022D47"/>
<path d="M22.4005 18.9452H23.3008C23.7002 18.9452 24.027 18.6109 24.027 18.2024V11.6949C24.027 10.5286 21.2459 7.80237 19.7212 7.80237H18.0946V13.7452C18.0946 14.9709 17.1143 15.9738 15.9163 15.9738H6.94861C8.50257 16.1744 9.75149 17.3926 10.0564 18.9452H15.2409C15.575 17.2366 17.049 15.9366 18.8207 15.9366C20.5852 15.9366 22.0664 17.2366 22.4005 18.9452ZM19.2853 9.62972C23.0031 9.44401 22.8507 13.3737 22.8507 13.3737H19.2853V9.62972Z" fill="#022D47"/>
<path d="M18.8183 21.9119C20.0294 21.9119 21.0112 20.9075 21.0112 19.6685C21.0112 18.4295 20.0294 17.425 18.8183 17.425C17.6072 17.425 16.6254 18.4295 16.6254 19.6685C16.6254 20.9075 17.6072 21.9119 18.8183 21.9119Z" fill="#022D47"/>
<path d="M6.47413 21.9119C7.68522 21.9119 8.667 20.9075 8.667 19.6685C8.667 18.4295 7.68522 17.425 6.47413 17.425C5.26303 17.425 4.28125 18.4295 4.28125 19.6685C4.28125 20.9075 5.26303 21.9119 6.47413 21.9119Z" fill="#022D47"/>
</svg>
