<svg width="23" height="22" viewBox="0 0 23 22" fill="none" xmlns="http://www.w3.org/2000/svg">
<g clip-path="url(#clip0_1401_5105)">
<path d="M22.2651 6.98321L11.8943 1.01007C11.7781 0.943175 11.6363 0.943175 11.5201 1.01007L1.14932 6.98321C1.02933 7.05235 0.955034 7.18233 0.955078 7.32322V20.9234C0.955078 20.9882 1.00647 21.0408 1.06984 21.0408H3.35815C3.42153 21.0408 3.47292 20.9882 3.47292 20.9234V9.38121H19.9414V20.9234C19.9414 20.9883 19.9928 21.0408 20.0562 21.0408H22.3445C22.4079 21.0408 22.4593 20.9883 22.4593 20.9234V7.32313C22.4593 7.18229 22.3851 7.05235 22.2651 6.98321Z" fill="#022D47"/>
<path d="M18.1564 17.3964H15.3564C15.1458 17.3964 14.9751 17.571 14.9751 17.7864V20.6511C14.9751 20.8666 15.1458 21.0412 15.3564 21.0412H18.1564C18.367 21.0412 18.5377 20.8666 18.5377 20.6511V17.7864C18.5377 17.571 18.367 17.3964 18.1564 17.3964Z" fill="#022D47"/>
<path d="M13.1069 17.3964H10.3069C10.0963 17.3964 9.9256 17.571 9.9256 17.7864V20.6511C9.9256 20.8666 10.0963 21.0412 10.3069 21.0412H13.1069C13.3176 21.0412 13.4882 20.8666 13.4882 20.6511V17.7864C13.4883 17.571 13.3176 17.3964 13.1069 17.3964Z" fill="#022D47"/>
<path d="M8.05766 17.3964H5.25763C5.04706 17.3964 4.87634 17.571 4.87634 17.7864V20.6511C4.87634 20.8666 5.0471 21.0412 5.25763 21.0412H8.05766C8.26822 21.0412 8.43894 20.8666 8.43894 20.6511V17.7864C8.43894 17.571 8.26818 17.3964 8.05766 17.3964Z" fill="#022D47"/>
<path d="M18.1564 12.1259H15.3564C15.1458 12.1259 14.9751 12.3005 14.9751 12.5159V15.3806C14.9751 15.596 15.1458 15.7707 15.3564 15.7707H18.1564C18.367 15.7707 18.5377 15.596 18.5377 15.3806V12.5159C18.5377 12.3005 18.367 12.1259 18.1564 12.1259Z" fill="#022D47"/>
<path d="M13.1069 12.1259H10.3069C10.0963 12.1259 9.9256 12.3005 9.9256 12.5159V15.3806C9.9256 15.596 10.0963 15.7707 10.3069 15.7707H13.1069C13.3176 15.7707 13.4882 15.596 13.4882 15.3806V12.5159C13.4883 12.3005 13.3176 12.1259 13.1069 12.1259Z" fill="#022D47"/>
<path d="M8.05766 12.1259H5.25763C5.04706 12.1259 4.87634 12.3005 4.87634 12.5159V15.3806C4.87634 15.596 5.0471 15.7707 5.25763 15.7707H8.05766C8.26822 15.7707 8.43894 15.596 8.43894 15.3806V12.5159C8.43894 12.3005 8.26818 12.1259 8.05766 12.1259Z" fill="#022D47"/>
</g>
<defs>
<clipPath id="clip0_1401_5105">
<rect width="21.5042" height="22" fill="white" transform="translate(0.955078)"/>
</clipPath>
</defs>
</svg>
