<svg width="56" height="56" viewBox="0 0 56 56" fill="none" xmlns="http://www.w3.org/2000/svg">
<path d="M27.6256 15.0901V26.7183H26.0399C24.4747 26.7183 23.2693 27.8643 23.2693 29.2005C23.2693 30.5709 24.5066 31.6906 26.0399 31.6906H35.6411C37.1741 31.6906 38.4116 30.5808 38.4116 29.2005C38.4116 27.8302 37.1658 26.7183 35.6411 26.7183H34.0554V15.0901H38.4204L43.0902 3.43848H18.582L23.252 15.0901H27.6256Z" fill="#71B2D3"/>
<path d="M16.7171 6.07892L16.644 5.29549L11.7126 5.25879L11.6973 6.82487L16.7103 6.86196L16.7171 6.07892Z" fill="#71B2D3"/>
<path d="M13.1225 12.36L17.8105 10.7656L17.1941 9.30141L12.506 10.8958L13.1225 12.36Z" fill="#71B2D3"/>
<path d="M16.6752 17.0573L20.4053 14.0479L19.2413 12.8825L15.5113 15.8919L16.6752 17.0573Z" fill="#71B2D3"/>
<path d="M49.9779 6.82487L49.9626 5.25879L44.9512 5.29588L45.0456 6.86119L49.9779 6.82487Z" fill="#71B2D3"/>
<path d="M49.1753 10.8954L44.4873 9.30176L43.8711 10.7661L48.5591 12.3597L49.1753 10.8954Z" fill="#71B2D3"/>
<path d="M41.2709 14.0482L45.001 17.0576L46.165 15.8923L42.4349 12.8828L41.2709 14.0482Z" fill="#71B2D3"/>
<path d="M55.3155 34.4474C54.5052 33.6486 53.1983 33.4529 52.1441 33.9619L41.2013 39.2552C41.4801 40.2497 41.1315 41.252 40.3126 41.9097C39.7637 42.3482 39.058 42.5831 38.3349 42.5831C38.1432 42.5831 37.9602 42.5675 37.7685 42.5283L31.0789 41.3411C30.6067 41.2573 30.2998 40.8451 30.3937 40.4208C30.4874 39.9974 30.945 39.7223 31.4162 39.8059L38.1083 40.9936C38.4743 41.064 39.0101 40.882 39.2976 40.6549C39.6722 40.3573 39.8029 39.8875 39.6373 39.4725C39.4466 38.9672 38.9329 38.5762 38.425 38.1241C34.5619 34.6863 22.7174 32.817 21.0232 32.9674C15.3775 33.4607 1.2546 41.2911 0.653435 41.62L0 41.9802L5.32331 52.5356L6.19455 51.8935C9.07838 49.7871 17.2768 44.2667 20.605 44.0004C22.7744 43.8282 26.12 44.666 29.3523 45.4725C33.2207 46.4357 37.2109 47.4301 39.9902 46.9603C43.8324 46.3026 51.1161 40.9387 55.1064 37.7987C55.6378 37.3759 55.9602 36.7965 55.995 36.1622C56.0386 35.528 55.7946 34.9172 55.3155 34.4474Z" fill="#71B2D3"/>
</svg>
