<svg width="28" height="28" viewBox="0 0 28 28" fill="none" xmlns="http://www.w3.org/2000/svg">
<path d="M19.5894 5.86148C19.9275 5.52342 20.386 5.3335 20.8641 5.3335C21.3422 5.3335 21.8007 5.52342 22.1388 5.86148C22.4768 6.19954 22.6667 6.65806 22.6667 7.13615C22.6667 7.61424 22.4768 8.07275 22.1388 8.41082L14.0659 16.4837L10.6667 17.3335L11.5165 13.9344L19.5894 5.86148Z" stroke="#10223E" stroke-width="2" stroke-linecap="round" stroke-linejoin="round"/>
<path d="M13.3333 6.6665H7.11103C6.63953 6.6665 6.18735 6.8538 5.85395 7.1872C5.52055 7.5206 5.33325 7.97279 5.33325 8.44428V20.8887C5.33325 21.3602 5.52055 21.8124 5.85395 22.1458C6.18735 22.4792 6.63953 22.6665 7.11103 22.6665H19.5555C20.027 22.6665 20.4792 22.4792 20.8126 22.1458C21.146 21.8124 21.3333 21.3602 21.3333 20.8887V14.6665" stroke="#10223E" stroke-width="2" stroke-linecap="round" stroke-linejoin="round"/>
</svg>
