<svg width="28" height="28" viewBox="0 0 28 28" fill="none" xmlns="http://www.w3.org/2000/svg">
<path d="M22.9455 14.302C22.9998 14.1589 23.0139 14.0021 22.9861 13.8507C22.9583 13.6992 22.8898 13.5596 22.7889 13.4487L20.7005 11.2285C20.5629 11.0822 20.3763 11 20.1817 11C19.9871 11 19.8005 11.0822 19.6629 11.2285C19.5253 11.3748 19.448 11.5732 19.448 11.78C19.448 11.9869 19.5253 12.1853 19.6629 12.3316L20.4852 13.2058H15.7342C15.5395 13.2058 15.3527 13.2881 15.215 13.4344C15.0774 13.5808 15 13.7793 15 13.9864C15 14.1934 15.0774 14.3919 15.215 14.5383C15.3527 14.6847 15.5395 14.7669 15.7342 14.7669H20.4917L19.6694 15.6411C19.5991 15.7131 19.5429 15.7991 19.5039 15.8941C19.4648 15.9892 19.4438 16.0916 19.442 16.1953C19.4402 16.299 19.4576 16.4021 19.4933 16.4987C19.5289 16.5952 19.5821 16.6834 19.6498 16.7581C19.7175 16.8328 19.7984 16.8926 19.8878 16.9341C19.9773 16.9756 20.0735 16.9979 20.1711 16.9999C20.2687 17.0018 20.3656 16.9833 20.4565 16.9454C20.5473 16.9075 20.6302 16.8509 20.7005 16.7789L22.7758 14.5726C22.8497 14.4962 22.9075 14.4039 22.9455 14.302Z" fill="black"/>
<path d="M17.2749 17.04C17.0843 17.04 16.9015 17.1211 16.7668 17.2655C16.632 17.4099 16.5563 17.6057 16.5563 17.8099V20.9513C16.5546 21.1549 16.4783 21.3497 16.3439 21.4937C16.2095 21.6377 16.0277 21.7194 15.8376 21.7212H12.9501V6.26175H15.8376C16.0277 6.26354 16.2095 6.34523 16.3439 6.48922C16.4783 6.63321 16.5546 6.828 16.5563 7.03162V10.0768C16.5563 10.2819 16.6323 10.4786 16.7677 10.6236C16.9031 10.7686 17.0867 10.8501 17.2781 10.8501C17.4696 10.8501 17.6532 10.7686 17.7886 10.6236C17.9239 10.4786 18 10.2819 18 10.0768V7.0385C17.9983 6.42468 17.7699 5.83652 17.3648 5.40248C16.9596 4.96845 16.4106 4.72381 15.8376 4.72199H12.8667C12.7916 4.41607 12.6586 4.12994 12.476 3.88134C12.2934 3.63275 12.0651 3.42699 11.8052 3.27682C11.5453 3.12666 11.2593 3.03529 10.9651 3.00837C10.6709 2.98146 10.3747 3.01958 10.0948 3.12037L6.48223 4.40579C6.05069 4.55898 5.67519 4.85398 5.4091 5.24886C5.14301 5.64374 4.99986 6.11842 5 6.60544V21.3843C4.99986 21.8713 5.14301 22.346 5.4091 22.7409C5.67519 23.1358 6.05069 23.4308 6.48223 23.584L10.0884 24.8763C10.3116 24.9573 10.5456 24.9991 10.7813 25C11.2567 24.9972 11.718 24.8267 12.0938 24.5148C12.4696 24.2029 12.739 23.7671 12.8603 23.2747H15.8248C16.3978 23.2728 16.9468 23.0282 17.3519 22.5942C17.7571 22.1601 17.9855 21.572 17.9872 20.9581V17.8168C17.988 17.7157 17.9703 17.6154 17.9349 17.5216C17.8996 17.4279 17.8474 17.3425 17.7812 17.2704C17.7151 17.1982 17.6363 17.1408 17.5495 17.1012C17.4626 17.0617 17.3693 17.0409 17.2749 17.04ZM11.5 22.6698C11.4996 22.7921 11.4721 22.9126 11.4199 23.0215C11.3678 23.1304 11.2923 23.2245 11.1997 23.2962C11.1072 23.3679 11.0001 23.4151 10.8872 23.4341C10.7744 23.453 10.659 23.4432 10.5503 23.4053L6.94423 22.113C6.80038 22.0612 6.67533 21.9623 6.58669 21.8304C6.49806 21.6984 6.4503 21.54 6.45015 21.3775V6.60544C6.45163 6.44405 6.50001 6.28717 6.58855 6.15659C6.6771 6.02601 6.80141 5.92822 6.94423 5.87681L10.5503 4.58452C10.659 4.54661 10.7744 4.53673 10.8872 4.55569C11.0001 4.57465 11.1072 4.6219 11.1997 4.69359C11.2923 4.76529 11.3678 4.8594 11.4199 4.96826C11.4721 5.07712 11.4996 5.19765 11.5 5.32002V22.6698Z" fill="black"/>
</svg>
