<svg width="17" height="21" viewBox="0 0 17 21" fill="none" xmlns="http://www.w3.org/2000/svg">
<path d="M14.2822 4.23545L10.7194 0.714646C10.6476 0.643662 10.5502 0.60376 10.4486 0.60376H0.756205C0.54462 0.60376 0.373108 0.773251 0.373108 0.982341V19.23C0.373108 19.4391 0.54462 19.6086 0.756205 19.6086H14.0114C14.2229 19.6086 14.3945 19.4391 14.3945 19.23V4.50315C14.3945 4.40275 14.3541 4.30644 14.2822 4.23545ZM10.8317 1.89635L13.0864 4.12457H10.8317V1.89635ZM13.6283 18.8514H1.1393V1.36092H10.0655V4.50315C10.0655 4.71224 10.237 4.88173 10.4486 4.88173H13.6283V18.8514Z" fill="black"/>
<path d="M3.07377 7.19125H9.41402C9.62557 7.19125 9.79712 7.02175 9.79712 6.81266C9.79712 6.60357 9.62557 6.43408 9.41402 6.43408H3.07377C2.86219 6.43408 2.69067 6.60357 2.69067 6.81266C2.69067 7.02175 2.86219 7.19125 3.07377 7.19125Z" fill="black"/>
<path d="M11.6935 8.93262H3.07377C2.86219 8.93262 2.69067 9.10211 2.69067 9.3112C2.69067 9.52029 2.86219 9.68978 3.07377 9.68978H11.6935C11.905 9.68978 12.0765 9.52029 12.0765 9.3112C12.0765 9.10211 11.905 8.93262 11.6935 8.93262Z" fill="black"/>
<path d="M11.6935 11.4312H3.07377C2.86219 11.4312 2.69067 11.6006 2.69067 11.8097C2.69067 12.0188 2.86219 12.1883 3.07377 12.1883H11.6935C11.905 12.1883 12.0765 12.0188 12.0765 11.8097C12.0765 11.6006 11.905 11.4312 11.6935 11.4312Z" fill="black"/>
<path d="M11.6935 13.9297H3.07377C2.86219 13.9297 2.69067 14.0992 2.69067 14.3083C2.69067 14.5174 2.86219 14.6869 3.07377 14.6869H11.6935C11.905 14.6869 12.0765 14.5174 12.0765 14.3083C12.0765 14.0992 11.905 13.9297 11.6935 13.9297Z" fill="black"/>
<path d="M10.8511 7.19125H11.6939C11.9055 7.19125 12.077 7.02175 12.077 6.81266C12.077 6.60357 11.9055 6.43408 11.6939 6.43408H10.8511C10.6396 6.43408 10.468 6.60357 10.468 6.81266C10.468 7.02175 10.6396 7.19125 10.8511 7.19125Z" fill="black"/>
<path d="M15.9083 17.3957C15.9083 19.1092 14.5013 20.5064 12.7556 20.5064C11.0099 20.5064 9.60294 19.1092 9.60294 17.3957C9.60294 15.6822 11.0099 14.2849 12.7556 14.2849C14.5013 14.2849 15.9083 15.6822 15.9083 17.3957Z" fill="white" stroke="#022F47" stroke-width="0.807692"/>
<path d="M11.985 18.8276C11.9249 18.8276 11.8715 18.8016 11.8382 18.7627L10.8307 17.6977C10.7573 17.6198 10.764 17.4964 10.8441 17.425C10.9241 17.3535 11.0509 17.36 11.1243 17.4379L11.9916 18.3536L14.3935 16.0223C14.4735 15.9444 14.6003 15.9444 14.6737 16.0223C14.7471 16.1002 14.7538 16.2236 14.6737 16.295L12.1251 18.7692C12.0917 18.8081 12.0383 18.8276 11.985 18.8276Z" fill="#022F47"/>
</svg>
