<svg width="28" height="28" viewBox="0 0 28 28" fill="none" xmlns="http://www.w3.org/2000/svg">
<g clip-path="url(#clip0_12182_22410)">
<path d="M22.0727 21.4275L20.7036 8.76913C20.6699 8.45801 20.4072 8.22195 20.094 8.22195H17.8315V7.8118C17.8316 5.71005 16.1216 4 14.0197 4C11.9179 4 10.2079 5.71005 10.2079 7.8118V8.22195H7.94515C7.63204 8.22195 7.36928 8.45786 7.33556 8.76913L5.96654 21.4275C5.89574 22.0823 6.10738 22.7387 6.54729 23.2288C6.9872 23.7189 7.61724 24 8.27581 24H19.7632C20.4218 24 21.0518 23.7189 21.4919 23.2288C21.9318 22.7387 22.1435 22.0821 22.0727 21.4275ZM11.4341 7.8118C11.4341 6.38617 12.594 5.2262 14.0197 5.2262C15.4455 5.2262 16.6053 6.38617 16.6053 7.8118V8.22195H11.4341V7.8118ZM20.5793 22.4097C20.3685 22.6444 20.0788 22.7738 19.7634 22.7738H8.27581C7.96041 22.7738 7.67065 22.6444 7.45977 22.4097C7.2492 22.1749 7.15169 21.8729 7.18572 21.5594L8.49554 9.4483H10.2079V11.0107C10.2079 11.3492 10.4824 11.6237 10.821 11.6237C11.1596 11.6237 11.4341 11.3492 11.4341 11.0107V9.4483H16.6053V11.0107C16.6053 11.3492 16.8798 11.6237 17.2184 11.6237C17.5571 11.6237 17.8316 11.3492 17.8316 11.0107V9.4483H19.5437L20.8535 21.5594C20.8873 21.8729 20.79 22.1749 20.5793 22.4097Z" fill="black"/>
<path d="M14.0133 15.1285H14.9163C15.2549 15.1285 15.5294 14.854 15.5294 14.5154C15.5294 14.1768 15.2549 13.9023 14.9163 13.9023H14.6265V13.6653C14.6265 13.3268 14.3519 13.0522 14.0133 13.0522C13.6747 13.0522 13.4002 13.3268 13.4002 13.6653V14.0395C12.8689 14.2887 12.4973 14.8508 12.4973 15.5031C12.4973 16.386 13.1774 17.1041 14.0133 17.1041C14.1704 17.1041 14.3032 17.2756 14.3032 17.4787C14.3032 17.6819 14.1704 17.8534 14.0133 17.8534H13.1104C12.7718 17.8534 12.4973 18.1279 12.4973 18.4665C12.4973 18.8051 12.7718 19.0796 13.1104 19.0796H13.4002V19.3164C13.4002 19.6552 13.6747 19.9297 14.0133 19.9297C14.3519 19.9297 14.6265 19.6552 14.6265 19.3164V18.9424C15.1577 18.6933 15.5294 18.1311 15.5294 17.4787C15.5294 16.5959 14.8493 15.8779 14.0133 15.8779C13.8563 15.8779 13.7235 15.7062 13.7235 15.5031C13.7235 15.3 13.8563 15.1285 14.0133 15.1285Z" fill="black"/>
</g>
<defs>
<clipPath id="clip0_12182_22410">
<rect width="20" height="20" fill="white" transform="translate(4 4)"/>
</clipPath>
</defs>
</svg>
