<svg width="154" height="28" viewBox="0 0 154 28" fill="none" xmlns="http://www.w3.org/2000/svg">
<g clip-path="url(#clip0_12320_24626)">
<path d="M14 4L0 28H28L14 4Z" fill="#F3F3F3"/>
<path fill-rule="evenodd" clip-rule="evenodd" d="M14.2141 19.8273C14.9299 19.8273 15.4965 18.618 15.4965 17.1556C15.4965 15.665 14.9299 14.4838 14.2141 14.4838C13.4983 14.4838 12.9316 15.6931 12.9316 17.1556C12.9316 18.618 13.4983 19.8273 14.2141 19.8273Z" fill="#E7C263"/>
<path fill-rule="evenodd" clip-rule="evenodd" d="M12.6053 23.9336C8.60889 23.9617 3.89669 19.49 3.03179 15.8901C2.34584 13.0496 2.58443 10.6872 4.55282 6.7217C4.97035 5.87798 5.38789 5.39987 5.38789 5.39987C5.38789 5.39987 4.13528 8.38102 4.19493 11.2778C4.31422 16.8463 6.72997 19.7431 11.3825 22.5836C11.8895 22.893 12.0685 22.9774 12.3667 23.343C12.665 23.7367 12.6053 23.9336 12.6053 23.9336Z" fill="#E7C263"/>
<path fill-rule="evenodd" clip-rule="evenodd" d="M12.8152 22.415C12.8152 22.415 12.6959 21.3463 10.8766 19.9964C7.50652 17.5496 5.83637 13.6966 6.6118 9.64671C6.96969 7.79052 7.65564 5.62497 8.37142 4.50001C9.0872 3.37505 10.0416 1.85635 10.0416 1.85635C5.80655 6.2437 2.6452 13.0216 7.02934 18.3652C8.2223 19.8276 10.0714 21.1213 10.9363 21.5994C11.7714 22.0775 12.8152 22.415 12.8152 22.415Z" fill="#E7C263"/>
<path fill-rule="evenodd" clip-rule="evenodd" d="M11.9486 20.0524C11.9486 20.0524 11.9187 18.5056 10.9644 17.5775C6.789 13.612 8.04161 5.2592 13.4696 0C8.01178 3.68425 4.76096 13.1621 9.59246 18.2244C10.6363 19.3493 11.9486 20.0524 11.9486 20.0524Z" fill="#E7C263"/>
<path fill-rule="evenodd" clip-rule="evenodd" d="M15.6766 23.9335C19.673 23.9616 24.4151 19.518 25.28 15.9181C25.9659 13.0776 25.7273 10.7152 23.7589 6.74969C23.3414 5.90596 22.9239 5.42786 22.9239 5.42786C22.9239 5.42786 24.1765 8.409 24.1168 11.3058C23.9975 16.8743 21.5818 19.7711 16.9292 22.6116C16.4222 22.921 16.2433 23.0054 15.945 23.371C15.6468 23.7366 15.6766 23.9335 15.6766 23.9335Z" fill="#E7C263"/>
<path fill-rule="evenodd" clip-rule="evenodd" d="M15.4668 22.415C15.4668 22.415 15.5861 21.3463 17.4054 19.9963C20.8053 17.5496 22.4456 13.6966 21.6702 9.64671C21.3421 7.79052 20.6264 5.6531 19.9106 4.50001C19.1948 3.37505 18.2404 1.85635 18.2404 1.85635C22.4754 6.2437 25.6368 13.0216 21.2527 18.3652C20.0597 19.8276 18.2106 21.1213 17.3457 21.5994C16.5106 22.0775 15.4668 22.415 15.4668 22.415Z" fill="#E7C263"/>
<path fill-rule="evenodd" clip-rule="evenodd" d="M16.3335 20.0524C16.3335 20.0524 16.3634 18.5056 17.3177 17.5775C21.4931 13.612 20.2405 5.2592 14.8125 0C20.2405 3.71237 23.4913 13.1902 18.6598 18.2525C17.6458 19.3493 16.3335 20.0524 16.3335 20.0524Z" fill="#E7C263"/>
</g>
<path d="M46.5527 20.3406V14.9891H41.4426V20.3406H38V7.20288H41.4426V12.3514H46.5527V7.20288H49.9954V20.3406H46.5527Z" fill="#10223E"/>
<path d="M60.8069 17.8043H55.4816L54.621 20.3406H51.0977L56.2616 7.20288H60.0269L65.2177 20.3406H61.6944L60.8069 17.8043ZM56.3423 15.2427H59.9193L58.1442 9.68839L56.3423 15.2427Z" fill="#10223E"/>
<path d="M76.7293 20.5942C72.184 20.5942 69.6289 17.5 69.6289 13.7971C69.6289 10.0942 72.2109 7 76.7293 7C81.2208 7 83.8297 10.0942 83.8297 13.7971C83.8297 17.5 81.2477 20.5942 76.7293 20.5942ZM80.414 13.7717C80.414 11.3116 79.1499 9.53623 76.7293 9.53623C74.3087 9.53623 73.0446 11.3116 73.0446 13.7717C73.0446 16.2319 74.3087 18.0073 76.7293 18.0073C79.1768 18.0073 80.414 16.2319 80.414 13.7717Z" fill="#10223E"/>
<path d="M89.5857 9.76447L89.2361 12.7065C88.5099 18.6159 86.5465 20.4166 84.5025 20.5688L83.4805 18.1594C84.9597 17.6775 85.9548 16.0797 86.3583 11.8188L86.7886 7.20288H96.0675V20.3406H92.6249V9.76447H89.5857Z" fill="#10223E"/>
<path d="M106.96 20.3406V11.8695L101.661 20.3406H98.2188V7.20288H101.661V15.4964L106.96 7.20288H110.402V20.3406H106.96Z" fill="#10223E"/>
<path d="M121.914 18.2608H118.606L115.89 12.9855L115.46 20.3406H112.098L113.173 7.20288H116.266L120.274 15.2427L124.281 7.20288H127.374L128.423 20.3406H125.061L124.631 12.9855L121.914 18.2608Z" fill="#10223E"/>
<path d="M141.978 7.20288V20.3406H138.535V9.76447H133.56V20.3406H130.117V7.20288H141.978Z" fill="#10223E"/>
<path d="M143.969 7.20288H152.656V9.76447H147.411V12.4022H152.414V14.9637H147.411V17.7536H152.71V20.3152H143.969V7.20288Z" fill="#10223E"/>
<defs>
<clipPath id="clip0_12320_24626">
<rect width="28" height="28" fill="white"/>
</clipPath>
</defs>
</svg>
