<svg width="28" height="28" viewBox="0 0 28 28" fill="none" xmlns="http://www.w3.org/2000/svg">
<path d="M21.9193 13.3603C21.9224 14.5494 21.6446 15.7224 21.1085 16.7837C20.4729 18.0556 19.4957 19.1253 18.2864 19.8732C17.0771 20.621 15.6835 21.0174 14.2617 21.018C13.0726 21.0211 11.8996 20.7433 10.8383 20.2072L5.70312 21.9189L7.41484 16.7837C6.87874 15.7224 6.60093 14.5494 6.60403 13.3603C6.60458 11.9385 7.00097 10.5449 7.74882 9.33559C8.49666 8.12631 9.56642 7.14912 10.8383 6.51347C11.8996 5.97738 13.0726 5.69956 14.2617 5.70266H14.7121C16.5899 5.80626 18.3635 6.59884 19.6933 7.92866C21.0232 9.25848 21.8157 11.0321 21.9193 12.9099V13.3603Z" stroke="white" stroke-width="2" stroke-linecap="round" stroke-linejoin="round"/>
</svg>
