<svg width="56" height="56" viewBox="0 0 56 56" fill="none" xmlns="http://www.w3.org/2000/svg">
<path d="M47.1341 14.5241C46.9694 14.6698 46.77 14.7654 46.5544 14.7988C41.8934 15.5299 38.5334 14.3902 35.8389 13.4728C34.181 12.9113 32.7525 12.4239 31.3079 12.4239C28.8708 12.4239 26.9832 13.7021 25.1582 14.9375C24.7339 15.2242 24.3212 15.5037 23.913 15.7594L17.87 21.9859C17.0422 22.8389 16.8381 24.1362 17.3622 25.2138C17.8236 26.1671 18.7535 26.7597 19.7877 26.7597H20.7152C21.346 26.7597 21.9373 26.5446 22.4243 26.1384C22.8672 25.7657 23.3773 25.3284 23.9222 24.8577C26.8927 22.2988 29.2927 20.2895 30.8997 19.6682C31.0342 19.6157 31.1687 19.5917 31.3079 19.5917C31.5815 19.5917 31.8528 19.6921 32.0661 19.8833L48.8246 34.8473L55.6559 32.0566V9.04785L47.1341 14.5241Z" fill="#57A54A"/>
<path d="M10.4926 33.9277C9.73434 33.9277 9.02705 34.3171 8.60737 34.9671L7.34127 36.9239C7.09311 37.3061 6.96094 37.7577 6.96094 38.2189V38.7613C6.96094 40.0515 7.97432 41.0957 9.22651 41.0957C9.98478 41.0957 10.6921 40.7063 11.1118 40.0563L12.3779 38.0995C12.626 37.7173 12.7582 37.2657 12.7582 36.8045V36.2621C12.7581 34.9719 11.7448 33.9277 10.4926 33.9277Z" fill="#57A54A"/>
<path d="M15.1285 36.3174H15.0497C14.3355 36.3174 13.6654 36.6638 13.2363 37.2516L10.892 40.4747C10.5975 40.8786 10.4375 41.3683 10.4375 41.8749V42.3456C10.4375 43.6358 11.4509 44.68 12.7031 44.68H12.7819C13.4961 44.68 14.1662 44.3336 14.5953 43.7458L16.9396 40.5227C17.2341 40.1189 17.3941 39.629 17.3941 39.1226V38.6519C17.3941 37.3615 16.3807 36.3174 15.1285 36.3174Z" fill="#57A54A"/>
<path d="M19.7653 38.707H19.6865C18.9722 38.707 18.3021 39.0534 17.8731 39.6412L15.5287 42.8644C15.2342 43.2681 15.0742 43.758 15.0742 44.2645V44.7352C15.0742 46.0254 16.0876 47.0695 17.3398 47.0695H17.4186C18.1328 47.0695 18.803 46.7231 19.232 46.1354L21.5764 42.9122C21.8708 42.5084 22.0308 42.0186 22.0308 41.5121V41.0414C22.0308 39.7511 21.0174 38.707 19.7653 38.707Z" fill="#57A54A"/>
<path d="M24.4059 41.0957H24.3271C23.6128 41.0957 22.9427 41.4421 22.5137 42.0299L20.1693 45.253C19.8748 45.6568 19.7148 46.1467 19.7148 46.6531V47.1239C19.7148 48.4141 20.7282 49.4582 21.9804 49.4582H22.0592C22.7735 49.4582 23.4436 49.1118 23.8726 48.524L26.217 45.3009C26.5115 44.8971 26.6692 44.4049 26.6692 43.9008V43.4301H26.6715C26.6713 42.1399 25.6581 41.0957 24.4059 41.0957Z" fill="#57A54A"/>
<path d="M30.3463 48.2259L28.2477 46.3838C28.1782 46.4961 28.1457 46.6299 28.0691 46.7374L26.5781 48.785L28.1387 50.2759C28.6349 50.7849 29.3677 50.7562 29.806 50.3046C30.3834 49.7097 30.613 48.57 30.3463 48.2259Z" fill="#57A54A"/>
<path d="M47.9983 37.4324L31.1122 22.1984C29.6258 23.0538 27.2235 25.1229 25.4078 26.6878C24.856 27.1657 24.3388 27.6101 23.889 27.9876C22.9824 28.7497 21.8855 29.1488 20.7145 29.1488H19.787C17.867 29.1488 16.144 28.0497 15.2861 26.2816C14.3121 24.2842 14.6901 21.8806 16.2275 20.2965L22.7018 13.7188C23.0334 13.5109 23.3696 13.2839 23.7105 13.0545C20.0745 12.2899 15.9423 12.2374 11.3255 12.9852C8.99033 13.3746 6.62747 12.6985 4.83028 11.1574L0 9V32.0541L6.0291 34.6369L6.67378 33.6405C7.52248 32.3265 8.94859 31.538 10.4883 31.538C12.2158 31.538 13.7045 32.5391 14.4861 33.9966C14.6716 33.9703 14.8547 33.9272 15.0449 33.9272C16.828 33.9272 18.3331 34.9284 19.1192 36.3858C19.3093 36.3595 19.4925 36.3165 19.6826 36.3165C21.4658 36.3165 22.9708 37.3176 23.7569 38.775C23.9448 38.7512 24.1279 38.7057 24.3204 38.7057H24.4016C26.9291 38.7057 28.986 40.825 28.986 43.4293V43.8952L31.8962 46.4446C31.8984 46.4494 31.9031 46.4518 31.9078 46.4566L33.0162 47.4266C33.6609 47.957 34.5049 48.2629 35.3652 48.2629C36.323 48.2629 37.1021 47.4601 37.1021 46.4733C37.1021 45.9405 36.8725 45.4411 36.476 45.0994L25.9228 36.0393C25.4312 35.6164 25.364 34.8638 25.7745 34.3572C26.1849 33.8531 26.9153 33.7814 27.4093 34.2067L40.4459 45.4005C40.8054 45.7063 41.2552 45.8736 41.7213 45.8736H42.0622C43.1636 45.8736 44.0564 44.9513 44.0564 43.8187C44.0564 43.2215 43.8129 42.6624 43.3816 42.2705L30.5606 31.2631C30.069 30.8401 30.0018 30.0875 30.4145 29.5786C30.8272 29.0697 31.5577 29.0075 32.047 29.4257L44.8263 40.3973C44.8472 40.414 44.8681 40.4332 44.8866 40.4499L45.0768 40.6124C45.4385 40.9254 45.8976 41.095 46.3684 41.095H46.6792C47.7899 41.095 48.6966 40.1608 48.6966 39.0163C48.6963 38.4024 48.4435 37.8315 47.9983 37.4324Z" fill="#57A54A"/>
</svg>
