<svg width="28" height="28" viewBox="0 0 28 28" fill="none" xmlns="http://www.w3.org/2000/svg">
<path d="M14 4C10.6667 4 8 6.625 8 9.90625V12.5312C6.86667 12.5312 6 13.3844 6 14.5V23.0312C6 24.1469 6.86667 25 8 25H20C21.1333 25 22 24.1469 22 23.0312V14.5C22 13.3844 21.1333 12.5312 20 12.5312V9.90625C20 6.625 17.3333 4 14 4ZM20.6667 14.5V23.0312C20.6667 23.425 20.4 23.6875 20 23.6875H8C7.6 23.6875 7.33333 23.425 7.33333 23.0312V14.5C7.33333 14.1062 7.6 13.8438 8 13.8438H8.66667H19.3333H20C20.4 13.8438 20.6667 14.1062 20.6667 14.5ZM9.33333 12.5312V9.90625C9.33333 7.34687 11.4 5.3125 14 5.3125C16.6 5.3125 18.6667 7.34687 18.6667 9.90625V12.5312H9.33333Z" fill="black"/>
<path d="M14 15.8125C12.8667 15.8125 12 16.6656 12 17.7813C12 18.6344 12.5333 19.3562 13.3333 19.6187V21.0625C13.3333 21.4563 13.6 21.7188 14 21.7188C14.4 21.7188 14.6667 21.4563 14.6667 21.0625V19.6187C15.4667 19.3562 16 18.6344 16 17.7813C16 16.6656 15.1333 15.8125 14 15.8125ZM14 18.4375C13.6 18.4375 13.3333 18.175 13.3333 17.7813C13.3333 17.3875 13.6 17.125 14 17.125C14.4 17.125 14.6667 17.3875 14.6667 17.7813C14.6667 18.175 14.4 18.4375 14 18.4375Z" fill="black"/>
</svg>
