<svg width="25" height="24" viewBox="0 0 25 24" fill="none" xmlns="http://www.w3.org/2000/svg">
<g clip-path="url(#clip0_1401_5095)">
<path d="M16.0935 14.0738C15.3427 14.0738 14.7316 14.6987 14.7316 15.4669C14.7316 16.2353 15.3427 16.8604 16.0935 16.8604C16.8446 16.8604 17.4553 16.2353 17.4553 15.4669C17.4551 14.6987 16.8444 14.0738 16.0935 14.0738Z" fill="#022D47"/>
<path d="M9.30588 7.13025C8.55482 7.13025 7.94379 7.75537 7.94379 8.52375C7.94397 9.29175 8.55501 9.91669 9.30588 9.91669C10.0568 9.91669 10.6674 9.29175 10.6674 8.52375C10.6674 7.75537 10.0568 7.13025 9.30588 7.13025Z" fill="#022D47"/>
<path d="M12.708 0C6.24002 0 0.978394 5.38294 0.978394 12C0.978394 18.6167 6.24002 24 12.708 24C19.1752 24 24.4364 18.6167 24.4364 12C24.4364 5.38294 19.1752 0 12.708 0ZM9.30621 5.62931C10.8659 5.62931 12.1352 6.92756 12.1352 8.52394C12.1352 10.1196 10.8659 11.4182 9.30621 11.4182C7.74599 11.4182 6.47682 10.1196 6.47682 8.52394C6.47682 6.92756 7.74618 5.62931 9.30621 5.62931ZM8.4461 17.421C8.30315 17.5676 8.11492 17.6411 7.92743 17.6411C7.73976 17.6411 7.55191 17.5676 7.40858 17.421C7.12213 17.1279 7.12213 16.6524 7.40858 16.3597L16.9687 6.57881C17.255 6.28575 17.7196 6.28575 18.0063 6.57881C18.2927 6.87188 18.2927 7.34738 18.0063 7.64025L8.4461 17.421ZM16.0936 18.3615C14.5336 18.3615 13.2642 17.0631 13.2642 15.4669C13.2642 13.8712 14.5336 12.5726 16.0936 12.5726C17.6535 12.5726 18.9226 13.8712 18.9226 15.4669C18.9224 17.0631 17.6533 18.3615 16.0936 18.3615Z" fill="#022D47"/>
</g>
<defs>
<clipPath id="clip0_1401_5095">
<rect width="23.4592" height="24" fill="white" transform="translate(0.977539)"/>
</clipPath>
</defs>
</svg>
