<svg width="35" height="35" viewBox="0 0 35 35" fill="none" xmlns="http://www.w3.org/2000/svg">
<rect x="0.5" y="0.5" width="34" height="34" rx="5.5" fill="url(#paint0_linear_12252_8139)" stroke="#DEDEDE"/>
<g clip-path="url(#clip0_12252_8139)">
<g filter="url(#filter0_d_12252_8139)">
<path d="M17.8562 22.7057V21.067C17.7751 21.067 17.7346 21.067 17.694 21.067C16.7619 21.0202 15.7891 21.0202 14.857 20.9266C14.2085 20.8798 13.5195 20.7393 12.871 20.6457C12.3441 20.552 11.8172 20.4584 11.2904 20.3179C10.6419 20.1307 9.9934 19.8966 9.34493 19.6625C8.77751 19.4284 8.25063 19.1475 7.76427 18.7261C7.52109 18.5388 7.27792 18.2579 7.15633 17.9302C6.91315 17.462 6.95368 16.8533 7.27792 16.4319C7.56162 16.0106 7.92639 15.6828 8.37222 15.4019C8.8991 15.0742 9.46652 14.7933 10.0339 14.606C10.4392 14.4655 10.8445 14.3251 11.2904 14.2314C11.2904 14.3719 11.2904 14.5124 11.2904 14.6996C11.2904 14.7465 11.2093 14.7933 11.1282 14.8401C10.3987 15.0274 9.7097 15.3551 9.10175 15.7765C8.8991 15.9169 8.69646 16.151 8.49381 16.3383C8.12904 16.8065 8.2101 17.2747 8.53434 17.6961C8.81804 18.0238 9.10175 18.2579 9.46652 18.4452C10.0339 18.7729 10.6824 19.007 11.2904 19.1475C11.9794 19.3347 12.7089 19.4752 13.3979 19.5688C14.857 19.8029 16.2755 19.8966 17.7346 19.8966H17.8562V18.2111C17.8967 18.2111 17.9372 18.2579 17.9372 18.3047C18.5452 19.007 19.1126 19.6625 19.7205 20.3648C19.8421 20.4584 19.8016 20.552 19.7205 20.6457C19.1126 21.3011 18.5452 22.0034 17.9372 22.6589C17.9372 22.6121 17.8967 22.6121 17.8562 22.7057Z" fill="#7C7C7C"/>
<path d="M20.6941 20.8775V19.6602C20.7751 19.6602 20.8157 19.6134 20.8967 19.6134C21.6668 19.473 22.4368 19.3325 23.2069 19.1921C23.9364 19.0516 24.666 18.8175 25.355 18.443C25.7197 18.2557 26.0845 18.0216 26.4087 17.7407C26.8951 17.2257 26.8951 16.617 26.4087 16.102C26.125 15.8211 25.8008 15.5402 25.436 15.3997C25.0713 15.2124 24.666 15.072 24.2607 14.8847C24.2201 14.8847 24.1796 14.8379 24.1796 14.7911C24.1796 14.6506 24.1796 14.5102 24.1796 14.3229C24.4633 14.4165 24.747 14.4633 24.9902 14.6038C25.4766 14.8379 26.0034 15.0252 26.4898 15.3061C26.9762 15.5402 27.3815 15.9147 27.7057 16.3829C28.111 16.9447 28.111 17.7875 27.6246 18.3025C27.2599 18.7239 26.814 19.0984 26.3277 19.3325C25.8008 19.6134 25.2739 19.8007 24.7065 20.0348C24.3012 20.1753 23.8554 20.3157 23.4096 20.4094C22.68 20.5498 21.991 20.6903 21.2615 20.8307C21.1399 20.8307 20.9372 20.8775 20.6941 20.8775Z" fill="#7C7C7C"/>
<path d="M24.3006 11C23.8143 11 23.409 11.4682 23.409 12.03C23.409 12.5918 23.8143 13.06 24.3006 13.06C24.787 13.06 25.1923 12.5918 25.1923 12.03C25.2328 11.4682 24.8275 11 24.3006 11C24.3412 11 24.3006 11 24.3006 11ZM24.3006 12.5918C24.0169 12.5918 23.8143 12.3578 23.8143 12.03C23.8143 11.7023 24.0169 11.4682 24.3006 11.4682C24.5844 11.4682 24.787 11.7023 24.787 12.03C24.787 12.3578 24.5844 12.5918 24.3006 12.5918Z" fill="#7C7C7C"/>
<path d="M12.1434 15.9624C12.5082 16.1965 12.954 16.337 13.3593 16.337C14.1294 16.337 14.4131 15.8688 14.3726 15.4474C14.3726 14.792 13.8051 14.511 13.2377 14.511H12.7108V13.7619H13.1972C13.643 13.7619 14.1699 13.5278 14.1699 13.0128C14.1699 12.6383 13.9267 12.3105 13.3593 12.3105C12.954 12.3105 12.5893 12.451 12.265 12.6851L12.1029 11.936C12.5487 11.6082 13.0756 11.4678 13.643 11.4678C14.6968 11.4678 15.2237 12.1232 15.2237 12.8255C15.2237 13.3874 14.8994 13.9024 14.2915 14.1365C14.8994 14.2769 15.3858 14.792 15.3858 15.5411C15.3858 16.4775 14.6563 17.2266 13.3998 17.2266C12.873 17.2266 12.3866 17.0861 11.9408 16.8052L12.1434 15.9624Z" fill="#7C7C7C"/>
<path d="M18.829 12.3573C18.6669 12.3573 18.5048 12.3573 18.3427 12.3573C17.2484 12.4978 16.681 13.1533 16.5999 13.9492C16.9241 13.5746 17.3294 13.3874 17.7753 13.3874C18.6669 13.3874 19.3964 14.0897 19.3964 15.2133C19.3964 16.337 18.5858 17.2266 17.6131 17.2266H17.5726C16.3162 17.2266 15.6272 16.1965 15.6272 14.792C15.5867 13.8556 15.9109 12.966 16.5188 12.3105C17.0457 11.7955 17.6942 11.5146 18.3832 11.4678C18.5453 11.4678 18.7074 11.4678 18.8695 11.4678L18.829 12.3573ZM18.3832 15.307C18.4237 14.7451 18.059 14.2301 17.5726 14.1833C17.5321 14.1833 17.4915 14.1833 17.451 14.1833C17.0862 14.1833 16.762 14.4174 16.5594 14.792C16.5188 14.8856 16.4783 14.9792 16.4783 15.0729C16.5188 15.7283 16.8025 16.3838 17.4915 16.3838C18.059 16.3838 18.4237 15.9156 18.3832 15.307Z" fill="#7C7C7C"/>
<path d="M23.2505 14.3238C23.2505 16.0093 22.6426 17.2266 21.3456 17.2266C20.1703 17.2266 19.5218 16.1029 19.5218 14.3706C19.5218 12.6383 20.2108 11.4678 21.3862 11.4678C22.6021 11.4678 23.2505 12.6383 23.2505 14.3238ZM20.454 14.3706C20.454 15.7283 20.8187 16.4306 21.3456 16.4306C21.9536 16.4306 22.2373 15.6815 22.2373 14.3706C22.2373 13.0596 21.9131 12.3105 21.3456 12.3105C20.8593 12.3105 20.454 12.966 20.454 14.3706Z" fill="#7C7C7C"/>
</g>
</g>
<defs>
<filter id="filter0_d_12252_8139" x="7" y="11" width="21.0002" height="12.7057" filterUnits="userSpaceOnUse" color-interpolation-filters="sRGB">
<feFlood flood-opacity="0" result="BackgroundImageFix"/>
<feColorMatrix in="SourceAlpha" type="matrix" values="0 0 0 0 0 0 0 0 0 0 0 0 0 0 0 0 0 0 127 0" result="hardAlpha"/>
<feOffset dy="1"/>
<feColorMatrix type="matrix" values="0 0 0 0 1 0 0 0 0 1 0 0 0 0 1 0 0 0 1 0"/>
<feBlend mode="normal" in2="BackgroundImageFix" result="effect1_dropShadow_12252_8139"/>
<feBlend mode="normal" in="SourceGraphic" in2="effect1_dropShadow_12252_8139" result="shape"/>
</filter>
<linearGradient id="paint0_linear_12252_8139" x1="17.5" y1="0" x2="17.5" y2="35" gradientUnits="userSpaceOnUse">
<stop stop-color="#F7F7F7"/>
<stop offset="1" stop-color="#F0F0F0"/>
</linearGradient>
<clipPath id="clip0_12252_8139">
<rect width="21" height="21" fill="white" transform="translate(7 7)"/>
</clipPath>
</defs>
</svg>
