<svg width="56" height="56" viewBox="0 0 56 56" fill="none" xmlns="http://www.w3.org/2000/svg">
<g clip-path="url(#clip0_12388_11709)">
<path d="M53.4408 16.498L47.8525 13.0774L46.5934 7.7454C46.0343 5.38061 43.8935 3.80408 41.5459 3.99308L35.1516 4.49937L31.4887 1.18137C29.6846 -0.393518 27.0598 -0.393517 25.2495 1.17973L21.5864 4.49926L15.1921 3.99297C12.8712 3.82639 10.7022 5.38203 10.2026 7.55137C10.0993 7.88015 8.23186 13.8187 8.3531 13.4329L3.29817 16.4963C1.27329 17.7684 0.462057 20.3222 1.36876 22.5686L3.55026 27.9775L1.37037 33.3849C0.462057 35.6327 1.27479 38.185 3.29817 39.4555L8.88081 42.8522L10.1446 48.2082C10.7005 50.5714 12.832 52.1399 15.192 51.9606L21.5174 51.4607L25.2493 54.8177C26.153 55.6058 27.2603 56 28.369 56C29.4762 56 30.5851 55.6058 31.4887 54.8176L35.2206 51.4606L41.5459 51.9605C43.9358 52.1543 46.0374 50.5729 46.5934 48.2081L47.8525 42.8761L53.4408 39.4555C55.4625 38.185 56.2738 35.6327 55.3686 33.3849L53.1871 27.9776L55.3702 22.567C56.2754 20.3224 55.4641 17.7685 53.4408 16.498ZM28.369 46.0469C18.6422 46.0469 10.7289 37.9511 10.7289 28C10.7289 18.049 18.6422 9.95314 28.369 9.95314C38.0958 9.95314 46.0092 18.049 46.0092 28C46.0092 37.9511 38.0958 46.0469 28.369 46.0469Z" fill="#F3D470"/>
<path d="M28.3704 13.2344C20.4117 13.2344 13.9375 19.8578 13.9375 28C13.9375 36.1422 20.4117 42.7656 28.3704 42.7656C36.3291 42.7656 42.8033 36.1422 42.8033 28C42.8033 19.8578 36.3291 13.2344 28.3704 13.2344ZM37.5224 24.238L27.9005 34.0818C27.5873 34.4023 27.1769 34.5625 26.7667 34.5625C26.3565 34.5625 25.9461 34.4023 25.6329 34.0818L19.2183 27.5193C18.5919 26.8785 18.5919 25.8402 19.2183 25.1993C19.8447 24.5585 20.8596 24.5585 21.486 25.1993L26.7667 30.6019L35.2549 21.9181C35.8812 21.2773 36.8961 21.2773 37.5225 21.9181C38.1489 22.5589 38.1489 23.5972 37.5224 24.238Z" fill="#F3D470"/>
</g>
<defs>
<clipPath id="clip0_12388_11709">
<rect width="56" height="56" fill="white"/>
</clipPath>
</defs>
</svg>
