<svg width="20" height="20" viewBox="0 0 20 20" fill="none" xmlns="http://www.w3.org/2000/svg">
<g clip-path="url(#clip0_7010_60612)">
<path d="M10.0007 7.08331C8.39273 7.08331 7.08398 8.39165 7.08398 9.99998C7.08398 11.6083 8.39273 12.9166 10.0007 12.9166C11.6086 12.9166 12.9173 11.6083 12.9173 9.99998C12.9173 8.39165 11.6086 7.08331 10.0007 7.08331ZM10.0007 11.25C9.31148 11.25 8.75065 10.6891 8.75065 9.99998C8.75065 9.31081 9.31148 8.74998 10.0007 8.74998C10.6898 8.74998 11.2506 9.31081 11.2506 9.99998C11.2506 10.6891 10.6898 11.25 10.0007 11.25Z" fill="white"/>
<path d="M19.1667 9.16667H17.4508C17.065 5.69625 14.3038 2.935 10.8333 2.54917V0.833333C10.8333 0.373333 10.46 0 10 0C9.54 0 9.16667 0.373333 9.16667 0.833333V2.54917C5.69625 2.935 2.935 5.69625 2.54917 9.16667H0.833333C0.373333 9.16667 0 9.54 0 10C0 10.46 0.373333 10.8333 0.833333 10.8333H2.54917C2.935 14.3038 5.69625 17.065 9.16667 17.4508V19.1667C9.16667 19.6267 9.54 20 10 20C10.46 20 10.8333 19.6267 10.8333 19.1667V17.4508C14.3038 17.065 17.065 14.3038 17.4508 10.8333H19.1667C19.6267 10.8333 20 10.46 20 10C20 9.54 19.6267 9.16667 19.1667 9.16667ZM10 15.8333C6.78333 15.8333 4.16667 13.2167 4.16667 10C4.16667 6.78333 6.78333 4.16667 10 4.16667C13.2167 4.16667 15.8333 6.78333 15.8333 10C15.8333 13.2167 13.2167 15.8333 10 15.8333Z" fill="white"/>
</g>
<defs>
<clipPath id="clip0_7010_60612">
<rect width="20" height="20" fill="white"/>
</clipPath>
</defs>
</svg>
