<svg width="21" height="21" viewBox="0 0 21 21" fill="none" xmlns="http://www.w3.org/2000/svg">
<path d="M9.62885 4.54558C10.0114 3.86693 10.9886 3.86693 11.3712 4.54557L12.6558 6.82477C12.7985 7.07795 13.0443 7.25652 13.3292 7.314L15.8938 7.83147C16.6574 7.98555 16.9594 8.91499 16.4322 9.48849L14.6615 11.4146C14.4648 11.6285 14.371 11.9175 14.4043 12.2062L14.7047 14.8052C14.7941 15.5791 14.0035 16.1535 13.2951 15.8293L10.9162 14.7405C10.6519 14.6195 10.3481 14.6195 10.0838 14.7405L7.70485 15.8293C6.9965 16.1535 6.20586 15.5791 6.2953 14.8052L6.59568 12.2062C6.62904 11.9175 6.53516 11.6285 6.33847 11.4146L4.56781 9.48849C4.04058 8.91499 4.34257 7.98555 5.1062 7.83147L7.67083 7.314C7.95571 7.25652 8.2015 7.07795 8.3442 6.82477L9.62885 4.54558Z" fill="#F3D470"/>
</svg>
