<svg width="28" height="28" viewBox="0 0 28 28" fill="none" xmlns="http://www.w3.org/2000/svg">
<path d="M19.6157 15.7061C18.0865 15.7061 16.8425 16.9501 16.8425 18.4792C16.8425 20.0083 18.0865 21.2523 19.6157 21.2523C21.1451 21.2523 22.3888 20.0083 22.3888 18.4792C22.3888 16.9501 21.1448 15.7061 19.6157 15.7061ZM19.6157 19.8658C18.851 19.8658 18.2291 19.2439 18.2291 18.4792C18.2291 17.7145 18.851 17.0926 19.6157 17.0926C20.3803 17.0926 21.0022 17.7145 21.0022 18.4792C21.0022 19.2439 20.3803 19.8658 19.6157 19.8658Z" fill="black"/>
<path d="M10.1409 15.7061C8.61179 15.7061 7.3678 16.9501 7.3678 18.4792C7.3678 20.0083 8.61179 21.2523 10.1409 21.2523C11.6701 21.2523 12.9141 20.0083 12.9141 18.4792C12.9141 16.9501 11.6701 15.7061 10.1409 15.7061ZM10.1409 19.8658C9.37626 19.8658 8.75437 19.2439 8.75437 18.4792C8.75437 17.7145 9.37626 17.0926 10.1409 17.0926C10.9054 17.0926 11.5275 17.7145 11.5275 18.4792C11.5275 19.2439 10.9056 19.8658 10.1409 19.8658Z" fill="black"/>
<path d="M21.4829 7.7685C21.365 7.5344 21.1254 7.38672 20.8633 7.38672H17.212V8.77329H20.4358L22.3236 12.5281L23.5627 11.905L21.4829 7.7685Z" fill="black"/>
<path d="M17.5358 17.8091H12.2899V19.1957H17.5358V17.8091Z" fill="black"/>
<path d="M8.06084 17.8091H5.6575C5.27456 17.8091 4.96423 18.1194 4.96423 18.5023C4.96423 18.8853 5.2746 19.1956 5.6575 19.1956H8.06088C8.44383 19.1956 8.75415 18.8852 8.75415 18.5023C8.75415 18.1194 8.44378 17.8091 8.06084 17.8091Z" fill="black"/>
<path d="M24.8545 13.5706L23.4908 11.8143C23.3598 11.6451 23.1576 11.5462 22.9433 11.5462H17.9055V6.69326C17.9055 6.31032 17.5951 6 17.2122 6H5.6575C5.27456 6 4.96423 6.31037 4.96423 6.69326C4.96423 7.07616 5.2746 7.38653 5.6575 7.38653H16.5189V12.2395C16.5189 12.6224 16.8293 12.9328 17.2122 12.9328H22.6038L23.6135 14.2333V17.8088H21.6954C21.3125 17.8088 21.0021 18.1192 21.0021 18.5021C21.0021 18.885 21.3125 19.1954 21.6954 19.1954H24.3068C24.6897 19.1954 25 18.885 25.0001 18.5021V13.9959C25.0001 13.8419 24.9488 13.6922 24.8545 13.5706Z" fill="black"/>
<path d="M8.01459 14.2964H4.82546C4.44252 14.2964 4.1322 14.6068 4.1322 14.9896C4.1322 15.3726 4.44257 15.6829 4.82546 15.6829H8.01454C8.39748 15.6829 8.70781 15.3725 8.70781 14.9896C8.70785 14.6068 8.39748 14.2964 8.01459 14.2964Z" fill="black"/>
<path d="M9.60929 11.5693H3.69326C3.31037 11.5693 3 11.8797 3 12.2626C3 12.6456 3.31037 12.9559 3.69326 12.9559H9.60929C9.99223 12.9559 10.3025 12.6455 10.3025 12.2626C10.3025 11.8797 9.99223 11.5693 9.60929 11.5693Z" fill="black"/>
<path d="M10.7415 8.84229H4.82546C4.44252 8.84229 4.1322 9.15265 4.1322 9.53555C4.1322 9.91849 4.44257 10.2288 4.82546 10.2288H10.7415C11.1244 10.2288 11.4348 9.91845 11.4348 9.53555C11.4348 9.15265 11.1244 8.84229 10.7415 8.84229Z" fill="black"/>
</svg>
