<svg width="28" height="28" viewBox="0 0 28 28" fill="none" xmlns="http://www.w3.org/2000/svg">
<path d="M19.6159 15.7061C18.0868 15.7061 16.8428 16.9501 16.8428 18.4792C16.8428 20.0083 18.0868 21.2523 19.6159 21.2523C21.1453 21.2523 22.389 20.0083 22.389 18.4792C22.389 16.9501 21.1451 15.7061 19.6159 15.7061ZM19.6159 19.8658C18.8512 19.8658 18.2293 19.2439 18.2293 18.4792C18.2293 17.7145 18.8512 17.0926 19.6159 17.0926C20.3806 17.0926 21.0025 17.7145 21.0025 18.4792C21.0025 19.2439 20.3806 19.8658 19.6159 19.8658Z" fill="black"/>
<path d="M10.1408 15.7061C8.61167 15.7061 7.36768 16.9501 7.36768 18.4792C7.36768 20.0083 8.61167 21.2523 10.1408 21.2523C11.67 21.2523 12.914 20.0083 12.914 18.4792C12.914 16.9501 11.67 15.7061 10.1408 15.7061ZM10.1408 19.8658C9.37614 19.8658 8.75424 19.2439 8.75424 18.4792C8.75424 17.7145 9.37614 17.0926 10.1408 17.0926C10.9053 17.0926 11.5274 17.7145 11.5274 18.4792C11.5274 19.2439 10.9055 19.8658 10.1408 19.8658Z" fill="black"/>
<path d="M21.4828 7.7685C21.3649 7.5344 21.1253 7.38672 20.8632 7.38672H17.2119V8.77329H20.4357L22.3235 12.5281L23.5626 11.905L21.4828 7.7685Z" fill="black"/>
<path d="M17.5359 17.8091H12.29V19.1957H17.5359V17.8091Z" fill="black"/>
<path d="M8.06096 17.8091H5.65762C5.27468 17.8091 4.96436 18.1194 4.96436 18.5023C4.96436 18.8853 5.27472 19.1956 5.65762 19.1956H8.06101C8.44395 19.1956 8.75427 18.8852 8.75427 18.5023C8.75427 18.1194 8.4439 17.8091 8.06096 17.8091Z" fill="black"/>
<path d="M24.8546 13.5706L23.4909 11.8143C23.3599 11.6451 23.1577 11.5462 22.9435 11.5462H17.9056V6.69326C17.9056 6.31032 17.5952 6 17.2123 6H5.65762C5.27468 6 4.96436 6.31037 4.96436 6.69326C4.96436 7.07616 5.27472 7.38653 5.65762 7.38653H16.519V12.2395C16.519 12.6224 16.8294 12.9328 17.2123 12.9328H22.604L23.6136 14.2333V17.8088H21.6955C21.3126 17.8088 21.0023 18.1192 21.0023 18.5021C21.0023 18.885 21.3126 19.1954 21.6955 19.1954H24.3069C24.6898 19.1954 25.0001 18.885 25.0002 18.5021V13.9959C25.0002 13.8419 24.9489 13.6922 24.8546 13.5706Z" fill="black"/>
<path d="M8.01471 14.2964H4.82559C4.44265 14.2964 4.13232 14.6068 4.13232 14.9896C4.13232 15.3726 4.44269 15.6829 4.82559 15.6829H8.01466C8.3976 15.6829 8.70793 15.3725 8.70793 14.9896C8.70797 14.6068 8.3976 14.2964 8.01471 14.2964Z" fill="black"/>
<path d="M9.60929 11.5693H3.69326C3.31037 11.5693 3 11.8797 3 12.2626C3 12.6456 3.31037 12.9559 3.69326 12.9559H9.60929C9.99223 12.9559 10.3025 12.6455 10.3025 12.2626C10.3025 11.8797 9.99223 11.5693 9.60929 11.5693Z" fill="black"/>
<path d="M10.7416 8.84229H4.82559C4.44265 8.84229 4.13232 9.15265 4.13232 9.53555C4.13232 9.91849 4.44269 10.2288 4.82559 10.2288H10.7416C11.1246 10.2288 11.4349 9.91845 11.4349 9.53555C11.4349 9.15265 11.1246 8.84229 10.7416 8.84229Z" fill="black"/>
</svg>
