<svg width="30" height="26" viewBox="0 0 30 26" fill="none" xmlns="http://www.w3.org/2000/svg">
<path d="M10.6684 22.6471L10.6692 22.6478C11.6314 23.4604 12.7215 24.3811 13.852 25.3609C14.1698 25.6368 14.5774 25.7885 15 25.7885C15.4223 25.7885 15.8302 25.6368 16.1477 25.3613C17.2809 24.3793 18.3727 23.457 19.3365 22.6431L19.3366 22.6431L19.343 22.6377C22.1585 20.2597 24.5995 18.198 26.2998 16.1645C28.2055 13.8857 29.1 11.7155 29.1 9.33965C29.1 7.03654 28.3033 4.90792 26.8522 3.34798L26.779 3.41609L26.8522 3.34797C25.3835 1.76926 23.3678 0.9 21.1782 0.9C19.5396 0.9 18.0381 1.4139 16.718 2.42571C16.0857 2.91033 15.5106 3.49741 15 4.17763C14.4896 3.49739 13.9143 2.91032 13.2822 2.42572L13.2822 2.42571C11.9622 1.4139 10.4607 0.9 8.82202 0.9C6.63225 0.9 4.61673 1.76926 3.14804 3.34797L3.14803 3.34798C1.69696 4.90791 0.9 7.03653 0.9 9.33965C0.9 11.7155 1.79471 13.8857 3.70039 16.1647L3.7771 16.1006L3.70039 16.1647C5.4012 18.1985 7.84325 20.261 10.6601 22.64L10.6635 22.6429L10.6643 22.6436L10.6684 22.6471ZM15.8893 5.96132L15.975 6.01291C16.3386 5.40908 16.9573 4.54911 17.8428 3.8702C18.8347 3.11008 19.9561 2.72555 21.1782 2.72555C22.8498 2.72555 24.384 3.38642 25.4998 4.58596C26.633 5.80418 27.26 7.49132 27.26 9.33965C27.26 11.2836 26.5328 13.0269 24.8837 14.9992C23.2866 16.9092 20.909 18.9175 18.1446 21.2525L18.1437 21.2533C18.1437 21.2533 18.1437 21.2533 18.1437 21.2533C17.1944 22.0547 16.1208 22.9616 14.9978 23.9301C13.8813 22.9635 12.8094 22.0581 11.8621 21.2579L11.8613 21.2572L11.857 21.2537C11.8568 21.2536 11.8567 21.2535 11.8566 21.2534C9.09175 18.9182 6.71375 16.9093 5.11654 14.9992L5.03983 15.0634L5.11654 14.9992C3.46721 13.0269 2.73998 11.2836 2.73998 9.33965C2.73998 7.49132 3.36696 5.80419 4.50015 4.58597C5.61623 3.38642 7.15024 2.72555 8.82202 2.72555C10.0439 2.72555 11.1653 3.11008 12.1572 3.8702C13.0429 4.54911 13.6616 5.40908 14.025 6.01289L14.025 6.01292C14.2321 6.35671 14.5971 6.56203 15 6.56203C15.4029 6.56203 15.7679 6.35671 15.975 6.01292L15.8893 5.96132Z" fill="#10223E" stroke="black" stroke-width="0.2"/>
</svg>
