<svg width="28" height="28" viewBox="0 0 28 28" fill="none" xmlns="http://www.w3.org/2000/svg">
<path d="M15.8323 14.0001L23.6199 6.21215C24.1267 5.70557 24.1267 4.88651 23.6199 4.37993C23.1133 3.87336 22.2943 3.87336 21.7877 4.37993L13.9999 12.1679L6.21228 4.37993C5.70548 3.87336 4.88667 3.87336 4.3801 4.37993C3.8733 4.88651 3.8733 5.70557 4.3801 6.21215L12.1677 14.0001L4.3801 21.7881C3.8733 22.2947 3.8733 23.1138 4.3801 23.6204C4.63256 23.8731 4.96449 24 5.29619 24C5.62789 24 5.95959 23.8731 6.21228 23.6204L13.9999 15.8324L21.7877 23.6204C22.0404 23.8731 22.3721 24 22.7038 24C23.0355 24 23.3672 23.8731 23.6199 23.6204C24.1267 23.1138 24.1267 22.2947 23.6199 21.7881L15.8323 14.0001Z" fill="#10223E"/>
</svg>
